<?xml version="1.0" standalone="no"?>
<!DOCTYPE svg PUBLIC "-//W3C//DTD SVG 1.1//EN" "http://www.w3.org/Graphics/SVG/1.1/DTD/svg11.dtd" >
<svg xmlns="http://www.w3.org/2000/svg" xmlns:xlink="http://www.w3.org/1999/xlink" version="1.1">
<metadata></metadata>
<defs>
<font id="archivolight" horiz-adv-x="1269" >
<font-face units-per-em="2048" ascent="1638" descent="-410" />
<missing-glyph horiz-adv-x="438" />
<glyph unicode="&#xfb01;" horiz-adv-x="985" d="M23 952v125h159v189q0 57 17.5 110.5t64.5 87t133 33.5q84 0 146 -20v-105h-109q-104 0 -104 -104v-191h213v-125h-213v-952h-148v952h-159zM692 0v1077h148v-1077h-148zM692 1298v183h148v-183h-148z" />
<glyph unicode="&#xfb02;" horiz-adv-x="985" d="M23 952v125h159v189q0 57 17.5 110.5t64.5 87t133 33.5q84 0 146 -20v-105h-109q-104 0 -104 -104v-191h213v-125h-213v-952h-148v952h-159zM692 0v1481h148v-1481h-148z" />
<glyph horiz-adv-x="0" />
<glyph horiz-adv-x="682" />
<glyph unicode="&#xd;" horiz-adv-x="1228" />
<glyph unicode=" "  horiz-adv-x="438" />
<glyph unicode="&#x09;" horiz-adv-x="438" />
<glyph unicode="&#xa0;" horiz-adv-x="438" />
<glyph unicode="!" horiz-adv-x="540" d="M182 1405h176l-39 -1043h-98zM184 0v193h172v-193h-172z" />
<glyph unicode="&#x22;" horiz-adv-x="698" d="M109 1104v301h157v-301l-30 -260h-101zM414 1104v301h157v-301l-30 -260h-101z" />
<glyph unicode="#" horiz-adv-x="1189" d="M51 379v131h205l76 342h-191v131h221l101 447h141l-100 -447h327l101 447h141l-100 -447h166v-131h-195l-76 -342h181v-131h-209l-90 -404h-144l90 404h-327l-90 -404h-142l90 404h-176zM397 510h328l78 342h-328z" />
<glyph unicode="$" horiz-adv-x="1013" d="M68 461q0 20 2 35h145q-2 -10 -2 -17.5v-13.5q0 -109 69.5 -153t180.5 -50v404h-2q-88 25 -170 56.5t-135.5 89.5t-53.5 161q0 127 95.5 203.5t265.5 85.5v219h100v-219q123 -8 199 -51.5t110.5 -107t34.5 -132.5q0 -23 -2 -37h-145v27q0 37 -16.5 73.5t-58.5 65 t-122 37.5v-355q68 -20 133.5 -41.5t118.5 -54.5t85 -86t32 -133q0 -152 -103.5 -232.5t-265.5 -93.5v-241h-100v239q-195 6 -295 91t-100 231zM252 979q0 -51 28.5 -81t77 -48.5t105.5 -36.5v328q-211 -15 -211 -162zM563 264q94 10 155.5 55t61.5 125q0 88 -63.5 127 t-153.5 66v-373z" />
<glyph unicode="%" horiz-adv-x="1931" d="M190 1059q0 143 36 223t103.5 114t162.5 34q94 0 160.5 -34t102.5 -114t36 -223q0 -141 -36 -222t-102.5 -114t-160.5 -33t-162 34t-104 114t-36 221zM330 1051q0 -123 34 -188.5t128 -65.5q96 0 128.5 65.5t32.5 188.5v16q0 125 -32.5 190.5t-128.5 65.5 q-94 0 -128 -65.5t-34 -190.5v-16zM389 0l1008 1405h147l-1007 -1405h-148zM1143 344q0 143 35.5 223t103.5 114t162 34q92 0 159.5 -34t102.5 -114t35 -223q0 -141 -35 -222t-102.5 -114t-159.5 -33q-94 0 -162 34t-103.5 114t-35.5 221zM1282 336q0 -123 34 -188.5 t128 -65.5q96 0 129 65.5t33 188.5v16q0 125 -33 190.5t-129 65.5q-94 0 -128 -65.5t-34 -190.5v-16z" />
<glyph unicode="&#x26;" horiz-adv-x="1382" d="M98 377q0 137 69 224t169 120v8q-88 45 -147.5 120t-59.5 195q0 188 138.5 287t365.5 99q147 0 262 -47.5t180.5 -134.5t65.5 -204v-28h-148v18q-4 139 -108.5 202.5t-255.5 63.5q-88 0 -167 -24.5t-130 -80.5t-51 -153q0 -92 44 -150t115.5 -87t155.5 -29h123v-123h-119 q-88 0 -168 -23.5t-130 -80.5t-50 -164q0 -150 105.5 -215.5t273.5 -65.5q362 0 362 281v391h316v-127h-168v-258q0 -205 -134.5 -310.5t-394.5 -105.5q-152 0 -267.5 48.5t-181 138.5t-65.5 215z" />
<glyph unicode="'" horiz-adv-x="393" d="M109 1104v301h157v-301l-30 -260h-101z" />
<glyph unicode="(" horiz-adv-x="724" d="M154 594q0 250 95 486.5t273 424.5h96q-86 -123 -156.5 -271.5t-112.5 -311t-42 -328.5q0 -168 42 -331t112.5 -311.5t156.5 -273.5h-96q-178 188 -273 426t-95 490z" />
<glyph unicode=")" horiz-adv-x="724" d="M109 -322q86 123 155.5 271.5t111.5 311.5t42 329q0 168 -42 330.5t-111.5 311t-155.5 273.5h94q178 -188 273 -425.5t95 -489.5q0 -250 -95 -486.5t-273 -425.5h-94z" />
<glyph unicode="*" horiz-adv-x="833" d="M90 924l242 120l-242 123l66 115l219 -164l-23 287h131l-22 -287l217 164l65 -115l-241 -123l241 -120l-65 -115l-217 162l22 -287h-131l23 287l-219 -162z" />
<glyph unicode="+" d="M152 455v135h415v457h133v-457h418v-135h-418v-455h-133v455h-415z" />
<glyph unicode="," horiz-adv-x="544" d="M160 -211q53 14 77.5 71.5t24.5 139.5h-78v193h172v-170q0 -117 -32.5 -181.5t-77.5 -92.5t-86 -34v74z" />
<glyph unicode="-" horiz-adv-x="681" d="M82 475v160h518v-160h-518z" />
<glyph unicode="." horiz-adv-x="544" d="M186 0v193h172v-193h-172z" />
<glyph unicode="/" horiz-adv-x="598" d="M0 -100l471 1605h127l-471 -1605h-127z" />
<glyph unicode="0" horiz-adv-x="1171" d="M98 702q0 283 58.5 440.5t168 222.5t261.5 65t260 -65t167.5 -222.5t59.5 -440.5t-59.5 -440.5t-167.5 -222t-260 -64.5t-261.5 64.5t-168 222.5t-58.5 440zM254 659q0 -276 69.5 -417.5t262.5 -141.5t262.5 141.5t69.5 415.5v88q0 276 -70 418t-262 142 q-193 0 -262.5 -141.5t-69.5 -415.5v-89z" />
<glyph unicode="1" horiz-adv-x="1015" d="M106 0v129h365v1016h-365v96q123 6 241 37t210 133h61v-1282h345v-129h-857z" />
<glyph unicode="2" horiz-adv-x="1153" d="M100 0v55q0 113 59.5 201t151.5 162t193 145q106 74 196.5 146.5t144.5 154.5t54 187q0 113 -77 182.5t-224 69.5q-123 0 -194.5 -43t-103.5 -111t-32 -143v-84h-145q-2 10 -4 31.5t-2 50.5q0 152 67.5 244.5t180 137t243.5 44.5q207 0 326 -105.5t119 -277.5 q0 -129 -59.5 -228.5t-161 -183.5t-228.5 -170q-72 -49 -144.5 -104.5t-123.5 -113t-62 -108.5h787v-139h-961z" />
<glyph unicode="3" horiz-adv-x="1171" d="M84 383v25h147v-23q0 -137 89.5 -211t246.5 -74q162 0 259.5 68t97.5 219q0 104 -52.5 161.5t-134.5 80t-174 22.5h-160v125h166q84 0 158 27.5t119 87t45 160.5q0 86 -41 141t-108.5 84t-149.5 29q-135 0 -229.5 -71t-94.5 -204v-26h-151v30q0 117 60.5 206t167 139.5 t243.5 50.5q133 0 236.5 -43.5t161.5 -126t58 -205.5q0 -92 -33.5 -155.5t-88 -105.5t-115.5 -65v-8q115 -33 192.5 -119t77.5 -225q0 -125 -63.5 -215t-174 -138.5t-251.5 -48.5q-248 0 -376 107.5t-128 300.5z" />
<glyph unicode="4" horiz-adv-x="1116" d="M55 358v127q131 229 226.5 459t150.5 486h158q-31 -143 -83 -292t-110.5 -282t-111 -231.5t-82.5 -139.5h522v490q20 59 39.5 126.5t32.5 119.5h75v-736h193v-127h-193v-358h-147v358h-670z" />
<glyph unicode="5" horiz-adv-x="1167" d="M104 436h150q0 -104 46 -179t125 -116t173 -41q143 0 236.5 87t93.5 272q0 164 -85 243.5t-227 79.5q-100 0 -188 -46t-133 -134l-139 25l59 778h793v-139h-662l-37 -482q53 51 134 89t196 38q123 0 223.5 -47t159.5 -144t59 -253q0 -231 -129 -361.5t-354 -130.5 q-150 0 -260.5 55.5t-172 159t-61.5 246.5z" />
<glyph unicode="6" horiz-adv-x="1171" d="M98 662q0 285 60.5 453.5t175.5 241.5t278 73q147 0 239.5 -56.5t135.5 -154t43 -222.5h-151q0 307 -277 308q-137 0 -213 -71t-105.5 -204t-31.5 -317q53 92 156.5 143t222.5 51q154 0 254 -61.5t148 -164.5t48 -232q0 -141 -61.5 -248t-168 -166.5t-239.5 -59.5 q-162 0 -276.5 62.5t-176 212t-61.5 412.5zM270 438q0 -92 36 -168.5t108.5 -123t183.5 -46.5q113 0 185.5 48.5t108.5 128t36 174.5q0 90 -34 165.5t-105.5 120.5t-184.5 45q-111 0 -185.5 -47t-111.5 -125t-37 -172z" />
<glyph unicode="7" horiz-adv-x="1110" d="M72 1266v139h983v-90q-98 -113 -202.5 -255t-194 -304t-143.5 -330t-54 -332v-94h-166q0 201 52 382t135 341t180.5 296t187.5 247h-778z" />
<glyph unicode="8" horiz-adv-x="1173" d="M100 383q0 113 58.5 202t183.5 136q-100 51 -152.5 136t-52.5 187q0 109 51.5 196t151.5 138.5t248 51.5q145 0 245.5 -51.5t150.5 -138.5t50 -196q0 -102 -52 -187t-153 -136q127 -47 185.5 -136t58.5 -202t-50 -206t-156.5 -147.5t-278.5 -54.5q-174 0 -281.5 54.5 t-157 147.5t-49.5 206zM254 379q0 -129 84 -204t250 -75q164 0 247 75t83 204q0 127 -83 202.5t-247 75.5q-166 0 -250 -75.5t-84 -202.5zM291 1044q0 -125 80 -194.5t217 -69.5q135 0 215 70t80 194q0 125 -79 193t-216 68q-139 0 -218 -68t-79 -193z" />
<glyph unicode="9" horiz-adv-x="1171" d="M90 956q0 141 61.5 248t168 166.5t239.5 59.5q160 0 275.5 -62.5t177 -212t61.5 -412.5q0 -285 -60.5 -453.5t-175 -241.5t-278.5 -73q-147 0 -239.5 56.5t-135.5 154t-43 222.5h152q0 -156 70.5 -232t205.5 -76q137 0 212 71t106 204t33 317q-53 -92 -157 -143t-222 -51 q-154 0 -254.5 61.5t-148.5 164.5t-48 232zM244 954q0 -90 33.5 -165.5t105 -120.5t184.5 -45q111 0 184.5 47t111.5 124.5t38 172.5q0 92 -36 168.5t-108.5 123t-183.5 46.5q-113 0 -185.5 -48.5t-108 -128t-35.5 -174.5z" />
<glyph unicode=":" horiz-adv-x="567" d="M197 0v193h172v-193h-172zM197 885v192h172v-192h-172z" />
<glyph unicode=";" horiz-adv-x="567" d="M174 -211q53 14 77.5 71.5t24.5 139.5h-77v193h172v-170q0 -117 -32 -181.5t-78 -92.5t-87 -34v74zM199 885v192h172v-192h-172z" />
<glyph unicode="&#x3c;" d="M127 430v170l971 420v-148l-844 -356l844 -356v-148z" />
<glyph unicode="=" d="M150 240v133h970v-133h-970zM150 670v133h970v-133h-970z" />
<glyph unicode="&#x3e;" d="M172 12v148l844 356l-844 356v148l971 -420v-170z" />
<glyph unicode="?" horiz-adv-x="1150" d="M115 1018q0 45 18.5 113.5t68.5 137t141 115t237 46.5q133 0 216 -42t127 -103.5t59 -122t15 -97.5q0 -121 -36.5 -195.5t-91 -123t-108.5 -86t-91 -84t-37 -119.5v-109h-146v125q0 90 36 147.5t88.5 99.5t104.5 84t88 99.5t36 147.5q0 29 -9.5 69.5t-37 80.5t-82 67.5 t-144.5 27.5q-100 0 -160.5 -33.5t-90 -83t-39 -96.5t-9.5 -75v-28.5v-29.5h-147q-2 6 -4 23.5t-2 44.5zM473 0v193h172v-193h-172z" />
<glyph unicode="@" horiz-adv-x="2064" d="M111 537q0 244 75.5 414.5t205.5 275t300 152.5t361 48q193 0 357.5 -43t286.5 -136t189.5 -239.5t67.5 -353.5q0 -172 -44 -288.5t-112.5 -187t-147.5 -101.5t-149 -31q-121 0 -164 44t-47 112h-12q-55 -76 -148.5 -118t-205.5 -42q-80 0 -151 25.5t-116 84t-45 158.5 q0 135 87 206t240 97.5t343 26.5v125q0 88 -51 138t-199 50q-141 0 -192.5 -51t-51.5 -119v-30h-129q-2 10 -2 19v24q0 137 108.5 203.5t285.5 66.5q176 0 272 -74.5t96 -208.5v-538q0 -45 19.5 -66.5t77.5 -21.5q78 0 151.5 48t121.5 157.5t48 293.5q0 236 -100.5 382.5 t-277.5 215t-408 68.5q-254 0 -438.5 -86t-286 -261t-101.5 -441q0 -371 183.5 -556.5t568.5 -185.5q53 0 123.5 8.5t138.5 21.5t107 32v-113q-47 -16 -115 -28.5t-136.5 -19.5t-117.5 -7q-266 0 -460.5 89t-300 277.5t-105.5 483.5zM754 317q0 -86 56 -123.5t140 -37.5 t160 34.5t124 97t48 146.5v98q-262 0 -395 -44t-133 -171z" />
<glyph unicode="A" horiz-adv-x="1370" d="M16 0l559 1405h218l561 -1405h-174l-148 371h-704l-146 -371h-166zM383 510h594l-184 469q-8 23 -26.5 72t-40 107.5t-40.5 107.5h-14q-12 -39 -31.5 -92.5t-39 -105.5t-34.5 -89z" />
<glyph unicode="B" horiz-adv-x="1423" d="M186 0v1405h707q182 0 286.5 -91t104.5 -247q0 -121 -61.5 -209t-161.5 -121v-8q109 -25 185.5 -106.5t76.5 -241.5q0 -139 -56.5 -223t-153.5 -121t-220 -37h-707zM348 139h555q115 0 185.5 58.5t70.5 197.5q0 131 -68.5 193.5t-201.5 62.5h-541v-512zM348 791h520 q111 0 181.5 65.5t70.5 175.5q0 119 -64.5 176.5t-170.5 57.5h-537v-475z" />
<glyph unicode="C" horiz-adv-x="1499" d="M111 702q0 362 176 545t493 183q182 0 320.5 -57.5t217.5 -174.5t79 -295h-164q0 199 -123 293t-332 94q-229 0 -364 -135t-135 -438v-43q0 -297 135 -428t366 -131q211 0 334 93t123 294h160q0 -180 -81 -297t-220.5 -173.5t-319.5 -56.5q-324 0 -494.5 181.5 t-170.5 545.5z" />
<glyph unicode="D" horiz-adv-x="1509" d="M186 0v1405h506q336 0 520.5 -167t184.5 -536q0 -367 -184.5 -534.5t-520.5 -167.5h-506zM348 139h338q166 0 288 54.5t188.5 172t66.5 312.5v43q0 199 -65.5 318.5t-187.5 173t-290 53.5h-338v-1127z" />
<glyph unicode="E" horiz-adv-x="1390" d="M186 0v1405h1076v-139h-914v-475h823v-142h-823v-510h926v-139h-1088z" />
<glyph unicode="F" horiz-adv-x="1257" d="M186 0v1405h990v-139h-828v-486h754v-139h-754v-641h-162z" />
<glyph unicode="G" horiz-adv-x="1632" d="M117 702q0 358 181 543t531 185q289 0 460 -125t171 -379h-164q0 135 -61 215t-166.5 114.5t-239.5 34.5q-254 0 -399 -132t-145 -435v-43q0 -305 139 -435t387 -130q260 0 373.5 109.5t113.5 338.5v31h-518v137h680v-731h-125l-20 188q-78 -115 -213 -164t-287 -49 q-346 0 -522 179.5t-176 547.5z" />
<glyph unicode="H" horiz-adv-x="1509" d="M186 0v1405h162v-617h815v617h162v-1405h-162v647h-815v-647h-162z" />
<glyph unicode="I" horiz-adv-x="532" d="M186 0v1405h162v-1405h-162z" />
<glyph unicode="J" horiz-adv-x="1120" d="M70 377v53h161v-68q0 -121 71 -184t198 -63q133 0 204.5 84t71.5 254v952h162v-938q0 -250 -115.5 -371t-322.5 -121q-203 0 -316.5 101.5t-113.5 300.5z" />
<glyph unicode="K" horiz-adv-x="1323" d="M186 0v1405h162v-787l756 787h205l-533 -557l555 -848h-194l-475 731l-314 -305v-426h-162z" />
<glyph unicode="L" horiz-adv-x="1064" d="M186 0v1405h162v-1264h694v-141h-856z" />
<glyph unicode="M" horiz-adv-x="1738" d="M186 0v1405h246l367 -973q18 -53 36.5 -113.5t28.5 -97.5h13q12 43 31.5 105.5t33.5 105.5l367 973h243v-1405h-161v874q0 51 1 116t3 125.5t2 94.5h-15q-12 -47 -33.5 -114.5t-39.5 -122.5l-377 -973h-131l-375 973q-18 49 -37.5 112.5t-36.5 124.5h-14q2 -43 3 -103 t2 -121.5t1 -111.5v-874h-158z" />
<glyph unicode="N" horiz-adv-x="1509" d="M186 0v1405h158l719 -971q16 -23 46 -64.5t48 -70.5h10v1106h158v-1405h-141l-733 991q-14 20 -45 64.5t-54 74.5h-8v-1130h-158z" />
<glyph unicode="O" horiz-adv-x="1619" d="M111 702q0 365 185 546.5t513 181.5t513 -181.5t185 -546.5t-185 -546t-513 -181t-513 181.5t-185 545.5zM279 680q0 -199 66.5 -324t185 -183t278.5 -58q162 0 280.5 58t185 183t66.5 324v43q0 201 -66.5 326t-185 183t-280.5 58q-160 0 -278.5 -58t-185 -183 t-66.5 -326v-43z" />
<glyph unicode="P" horiz-adv-x="1357" d="M186 0v1405h688q213 0 317.5 -118t104.5 -300q0 -127 -53 -224t-147.5 -151.5t-216.5 -54.5h-531v-557h-162zM348 696h518q119 0 193 77t74 212q0 131 -67 206t-200 75h-518v-570z" />
<glyph unicode="Q" horiz-adv-x="1619" d="M111 702q0 365 185 546.5t513 181.5t513 -181.5t185 -546.5q0 -270 -105.5 -440t-293.5 -239l297 -289h-211l-260 250q-57 -8 -125 -9q-328 0 -513 181.5t-185 545.5zM279 680q0 -199 66.5 -324t185 -183t278.5 -58q162 0 280.5 58t185 183t66.5 324v43q0 201 -66.5 326 t-185 183t-280.5 58q-160 0 -278.5 -58t-185 -183t-66.5 -326v-43z" />
<glyph unicode="R" horiz-adv-x="1499" d="M186 0v1405h738q209 0 311 -113.5t102 -285.5q0 -150 -68.5 -253.5t-181.5 -146.5l299 -606h-178l-280 578h-580v-578h-162zM348 717h559q125 0 197 77.5t72 211.5q0 121 -68 190.5t-201 69.5h-559v-549z" />
<glyph unicode="S" horiz-adv-x="1382" d="M115 393q0 14 2 39h162q0 -8 -1.5 -22.5t-1.5 -24.5q0 -90 54.5 -150.5t147.5 -90t210 -29.5q49 0 120 9t137.5 34.5t111.5 76t45 130.5q0 86 -52.5 138t-137.5 86t-186 58.5t-202.5 53t-186.5 72.5t-136 112.5t-51 177.5q0 164 134 265.5t418 101.5q145 0 263 -41 t188 -127t70 -222v-24h-160v35q0 111 -100.5 175t-251.5 64q-207 0 -303.5 -61.5t-96.5 -149.5q0 -80 52.5 -129t137.5 -79.5t186 -55t202.5 -54.5t187.5 -74t137.5 -115.5t51.5 -180.5q0 -145 -73 -237.5t-201 -135.5t-294 -43q-115 0 -219 21.5t-187 69t-130 128 t-47 199.5z" />
<glyph unicode="T" horiz-adv-x="1226" d="M33 1264v141h1161v-141h-502v-1264h-162v1264h-497z" />
<glyph unicode="U" horiz-adv-x="1505" d="M184 537v868h162v-901q0 -195 105.5 -291t296.5 -96q195 0 304 96t109 291v901h160v-868q0 -299 -152.5 -430.5t-420.5 -131.5q-264 0 -414 131.5t-150 430.5z" />
<glyph unicode="V" horiz-adv-x="1304" d="M20 1405h175l374 -1008q18 -51 42 -116.5t38 -112.5h15q16 45 38.5 110.5t40.5 116.5l371 1010h170l-532 -1405h-201z" />
<glyph unicode="W" horiz-adv-x="1861" d="M27 1405h172l262 -969q6 -25 17 -69.5t22.5 -92t19.5 -86.5h17q8 39 18 87.5t19.5 92.5t15.5 68l241 969h211l242 -969q6 -25 17.5 -69.5t21.5 -92t18 -86.5h17q8 37 19.5 85.5t21.5 92.5t18 70l262 969h156l-395 -1405h-201l-250 969q-12 45 -27.5 121.5t-23.5 132.5 h-14q-6 -37 -16.5 -85t-19.5 -94.5t-18 -74.5l-243 -969h-205z" />
<glyph unicode="X" horiz-adv-x="1386" d="M25 0l567 735l-516 670h198l418 -547h10l410 547h191l-506 -668l567 -737h-199l-469 614h-10l-469 -614h-192z" />
<glyph unicode="Y" horiz-adv-x="1320" d="M20 1405h183l456 -674h9l454 674h178l-559 -817v-588h-161v588z" />
<glyph unicode="Z" horiz-adv-x="1302" d="M70 0v88l899 1178h-846v139h1085v-86l-905 -1180h924v-139h-1157z" />
<glyph unicode="[" horiz-adv-x="563" d="M174 -330v1835h369v-112h-230v-1610h230v-113h-369z" />
<glyph unicode="\" horiz-adv-x="598" d="M0 1505h127l471 -1605h-127z" />
<glyph unicode="]" horiz-adv-x="563" d="M23 -217h229v1610h-229v112h366v-1835h-366v113z" />
<glyph unicode="^" d="M219 602l336 803h158l338 -803h-144l-274 666l-273 -666h-141z" />
<glyph unicode="_" horiz-adv-x="972" d="M0 -133h973v-123h-973v123z" />
<glyph unicode="`" horiz-adv-x="362" d="M0 1475l2 6h176l184 -271h-135z" />
<glyph unicode="a" horiz-adv-x="1103" d="M72 272q0 147 94 225t260 107t377 29v137q0 98 -56.5 153.5t-214.5 55.5q-104 0 -162.5 -26.5t-82 -69.5t-23.5 -92v-33h-141q-2 10 -2 20v25q0 152 118.5 225.5t311.5 73.5t296 -83t103 -231v-618q0 -39 14.5 -54.5t43.5 -15.5h86v-94q-66 -29 -136 -29 q-82 0 -111.5 50.5t-35.5 126.5h-14q-59 -86 -161.5 -132.5t-223.5 -46.5q-86 0 -164 28t-127 93.5t-49 175.5zM227 279q0 -94 61.5 -136.5t153.5 -42.5q88 0 171 39t136.5 106.5t53.5 157.5v111q-287 0 -431.5 -48t-144.5 -187z" />
<glyph unicode="b" horiz-adv-x="1136" d="M143 0v1481h148v-543h14q55 88 142.5 126t185.5 38q193 0 307.5 -134t114.5 -419q0 -303 -111.5 -438.5t-314.5 -135.5q-225 0 -338 183h-15l-16 -158h-117zM291 520q0 -201 73.5 -308.5t239.5 -107.5q135 0 216 90.5t81 317.5v51q0 217 -76.5 313.5t-230.5 96.5 q-74 0 -143.5 -34t-114.5 -123t-45 -259v-37z" />
<glyph unicode="c" horiz-adv-x="1034" d="M74 539q0 281 119.5 422t351.5 141q223 0 319.5 -115t96.5 -307h-146q0 154 -62.5 225.5t-211.5 71.5q-92 0 -163 -40t-111 -131t-40 -243v-49q0 -217 82 -315.5t232 -98.5q154 0 215 79t61 218h144q0 -115 -42 -211t-135 -153.5t-247 -57.5q-225 0 -344 138.5 t-119 425.5z" />
<glyph unicode="d" horiz-adv-x="1136" d="M82 549q0 285 113.5 419t308.5 134q106 0 189 -38t138 -126h13v543h147v-1481h-114l-17 158h-14q-57 -94 -146.5 -138.5t-191.5 -44.5q-203 0 -314.5 135.5t-111.5 438.5zM236 512q0 -227 80.5 -317.5t215.5 -90.5q166 0 239 107.5t73 308.5v37q0 170 -44 259t-114 123 t-143 34q-154 0 -230.5 -96.5t-76.5 -313.5v-51z" />
<glyph unicode="e" horiz-adv-x="1107" d="M82 539q0 291 124 427t365 136q223 0 340 -132t117 -376v-94h-792q0 -215 85 -308.5t244 -93.5q158 0 232.5 78t79.5 186h143q-2 -106 -52 -194t-151.5 -140.5t-257.5 -52.5q-231 0 -354 136.5t-123 427.5zM236 616h638q0 201 -87 281t-224 80q-152 0 -233.5 -86.5 t-93.5 -274.5z" />
<glyph unicode="f" horiz-adv-x="548" d="M23 952v125h159v189q0 57 17.5 110.5t64.5 87t133 33.5q84 0 146 -20v-105h-109q-104 0 -104 -104v-191h213v-125h-213v-952h-148v952h-159z" />
<glyph unicode="g" horiz-adv-x="1105" d="M39 -104q0 90 48 152.5t122 94.5q-53 23 -82 68t-29 98q0 70 51.5 120t124.5 67q-68 45 -107.5 113.5t-39.5 150.5q0 147 105.5 244.5t322.5 97.5q133 0 231 -41q70 27 110 77t52 111h148q-4 -88 -59.5 -159.5t-155.5 -88.5q51 -49 76.5 -110.5t25.5 -130.5 q0 -145 -104.5 -242.5t-319.5 -97.5h-170q-61 0 -100 -23.5t-39 -79.5q0 -47 40 -73.5t103 -26.5h422q119 0 193.5 -81t74.5 -199q0 -86 -43 -157t-118.5 -112t-173.5 -41h-420q-80 0 -145.5 34t-104.5 94.5t-39 140.5zM188 -86q0 -78 50 -124t122 -46h383q80 0 135.5 50 t55.5 120q0 78 -45 125t-113 47h-416q-72 0 -122 -50t-50 -122zM276 760q0 -98 70 -160.5t209 -62.5q141 0 211 60t70 163q0 104 -70 164.5t-211 60.5q-139 0 -209 -60.5t-70 -164.5z" />
<glyph unicode="h" horiz-adv-x="1132" d="M143 0v1481h148v-543h14q66 88 154 126t198 38q154 0 248 -78t94 -272v-752h-147v737q0 94 -32 145.5t-87 70t-125 18.5q-82 0 -154.5 -37t-117.5 -111.5t-45 -185.5v-637h-148z" />
<glyph unicode="i" horiz-adv-x="436" d="M143 0v1077h148v-1077h-148zM143 1298v183h148v-183h-148z" />
<glyph unicode="j" horiz-adv-x="430" d="M-41 -250h88q96 0 96 100v1227h148v-1227q0 -57 -17.5 -108t-62.5 -83t-127 -32q-33 0 -67.5 6.5t-57.5 14.5v102zM143 1298v183h148v-183h-148z" />
<glyph unicode="k" horiz-adv-x="1024" d="M143 0v1481h148v-955l489 551h178l-372 -420l393 -657h-172l-318 549l-198 -203v-346h-148z" />
<glyph unicode="l" horiz-adv-x="436" d="M143 0v1481h148v-1481h-148z" />
<glyph unicode="m" horiz-adv-x="1759" d="M143 0v1077h117l14 -170h15q68 109 154.5 152t195.5 43t186.5 -44t110.5 -151h12q63 106 152.5 150.5t197.5 44.5q143 0 235.5 -77t92.5 -269v-756h-147v739q0 94 -31 144.5t-82 69t-113 18.5q-78 0 -145.5 -40t-108.5 -115t-41 -179v-637h-147v739q0 94 -28.5 144.5 t-79 69t-111.5 18.5q-78 0 -146.5 -40t-111.5 -115t-43 -179v-637h-148z" />
<glyph unicode="n" horiz-adv-x="1132" d="M143 0v1077h117l14 -170h15q70 109 163 152t205 43q154 0 248 -78t94 -272v-752h-147v737q0 94 -32 145.5t-87 70t-125 18.5q-82 0 -154.5 -40t-117.5 -115t-45 -179v-637h-148z" />
<glyph unicode="o" horiz-adv-x="1138" d="M82 539q0 291 126 427t361 136q238 0 363 -136.5t125 -426.5q0 -291 -125 -427.5t-363 -136.5q-236 0 -361.5 136.5t-125.5 427.5zM236 514q0 -217 85.5 -315.5t247.5 -98.5t248 98.5t86 315.5v49q0 217 -86 315.5t-248 98.5t-247.5 -98.5t-85.5 -315.5v-49z" />
<glyph unicode="p" horiz-adv-x="1136" d="M143 -354v1431h117l16 -157h15q57 94 143 138t195 44q203 0 314.5 -135.5t111.5 -438.5q0 -285 -115 -419t-307 -134q-98 0 -185.5 38t-142.5 126h-14v-493h-148zM291 520q0 -170 45 -259t114.5 -123t143.5 -34q154 0 230.5 96.5t76.5 311.5v51q0 154 -37 243t-103.5 128 t-156.5 39q-166 0 -239.5 -107.5t-73.5 -310.5v-35z" />
<glyph unicode="q" horiz-adv-x="1136" d="M82 528q0 303 111.5 438.5t314.5 135.5q225 0 338 -182h14l17 157h114v-1431h-147v493h-13q-55 -88 -142 -126t-185 -38q-195 0 -308.5 134.5t-113.5 418.5zM236 512q0 -215 76.5 -311.5t230.5 -96.5q74 0 143.5 34t113.5 123t44 259v35q0 203 -73 310.5t-239 107.5 q-90 0 -156.5 -39t-103 -128t-36.5 -243v-51z" />
<glyph unicode="r" horiz-adv-x="649" d="M143 0v1077h119l12 -180h15q14 49 42.5 96t78 78t125.5 31q29 0 53 -4t37 -11v-135h-64q-96 0 -155.5 -46t-87 -121.5t-27.5 -163.5v-621h-148z" />
<glyph unicode="s" horiz-adv-x="1013" d="M68 299q0 18 2 35h145q-2 -10 -2 -17.5v-13.5q0 -121 84 -163t215 -42q113 0 190.5 47.5t77.5 137.5q0 74 -47 113.5t-119.5 61t-152.5 46.5q-88 25 -170 56.5t-135.5 89t-53.5 161.5q0 135 108.5 213t299.5 78q143 0 230 -42t127 -109.5t40 -143.5q0 -20 -2 -37h-145v27 q0 41 -20.5 83t-77 70.5t-160.5 28.5q-250 0 -250 -162q0 -59 37 -91t98.5 -51.5t132.5 -41.5q70 -23 142.5 -44.5t134 -54t98.5 -87t37 -142.5q0 -111 -56.5 -183.5t-153.5 -109.5t-220 -37q-215 0 -324.5 85t-109.5 239z" />
<glyph unicode="t" horiz-adv-x="591" d="M39 952v125h145l29 299h119v-299h207v-125h-207v-743q0 -55 15 -82t69 -27h123v-94q-31 -14 -76 -21.5t-82 -7.5q-113 0 -155 58.5t-42 146.5v770h-145z" />
<glyph unicode="u" horiz-adv-x="1132" d="M133 326v751h148v-737q0 -94 31.5 -145.5t86 -70t123.5 -18.5q82 0 155 40t118 115t45 179v637h147v-1077h-115l-16 170h-14q-68 -109 -161 -152t-206 -43q-154 0 -248 78t-94 273z" />
<glyph unicode="v" horiz-adv-x="1009" d="M33 1077h155l207 -563q14 -41 34 -98.5t39 -117.5t34 -105h10q14 45 33.5 103t40 117.5t35.5 100.5l204 563h150l-400 -1077h-143z" />
<glyph unicode="w" horiz-adv-x="1447" d="M29 1077h153l172 -596q18 -63 39 -144t31 -126h12q8 39 19.5 91t24 101.5t20.5 79.5l147 594h162l152 -594q14 -55 32.5 -137t28.5 -135h12q12 53 35 133t37 137l172 596h139l-325 -1077h-146l-147 578q-10 37 -22.5 91t-25 110.5t-20.5 101.5h-12q-12 -55 -30.5 -143.5 t-37.5 -162.5l-147 -575h-148z" />
<glyph unicode="x" horiz-adv-x="1019" d="M31 0l389 549l-375 528h180l283 -409h10l283 409h168l-371 -522l391 -555h-176l-303 436h-8l-301 -436h-170z" />
<glyph unicode="y" horiz-adv-x="1009" d="M33 1077h155l222 -573q14 -39 34.5 -97.5t42 -119t35.5 -107.5h13q12 45 30.5 104.5t37 118t32.5 99.5l190 575h150l-369 -1059q-41 -119 -90 -206.5t-120.5 -136t-180.5 -48.5q-39 0 -68.5 4t-48.5 9v110h80q53 0 102.5 18.5t92.5 72t78 159.5z" />
<glyph unicode="z" horiz-adv-x="1007" d="M70 0v88l624 864h-577v125h786v-84l-627 -868h664v-125h-870z" />
<glyph unicode="{" horiz-adv-x="681" d="M94 504v168q57 0 112.5 27.5t55.5 91.5v460q0 100 45 155.5t118 77t155 21.5v-100q-35 0 -75 -10.5t-68.5 -37t-30.5 -75.5l-21 -471q-4 -100 -42 -156.5t-150 -56.5v-20q113 0 150.5 -56.5t41.5 -156.5l21 -467q2 -49 30.5 -76t68.5 -37t75 -10v-101q-82 0 -155 21.5 t-118 77t-45 155.5v457q0 63 -55 91t-113 28z" />
<glyph unicode="|" horiz-adv-x="503" d="M186 -367v1848h131v-1848h-131z" />
<glyph unicode="}" horiz-adv-x="681" d="M104 -225q33 0 73 10t68.5 36.5t30.5 76.5l21 471q4 100 42 156.5t150 56.5v20q-113 0 -150.5 56.5t-41.5 156.5l-21 467q-2 49 -30.5 75.5t-68.5 37t-73 10.5v100q80 0 153 -21.5t119 -76.5t46 -156v-456q0 -63 54 -91t112 -28v-168q-57 0 -111.5 -27.5t-54.5 -91.5 v-461q0 -100 -46 -155.5t-119 -77t-153 -21.5v101z" />
<glyph unicode="~" d="M121 453v151q20 33 63 67t101.5 58.5t132.5 24.5q78 0 146.5 -32t138 -62.5t149.5 -30.5q63 0 120.5 24.5t103.5 58t73 66.5v-153q-23 -31 -65 -66t-101 -58.5t-131 -23.5q-78 0 -146.5 31t-138 61.5t-149.5 30.5q-63 0 -121.5 -23.5t-103.5 -58t-72 -65.5z" />
<glyph unicode="&#xa1;" horiz-adv-x="540" d="M182 -328l39 1043h98l39 -1043h-176zM184 885v192h172v-192h-172z" />
<glyph unicode="&#xa2;" horiz-adv-x="1153" d="M111 700q0 528 413 562v219h101v-217q201 -12 287.5 -125t86.5 -295h-147q0 139 -52 210.5t-175 82.5v-871q127 12 179 89t52 204h143q0 -109 -37.5 -200t-119.5 -150t-217 -70v-239h-101v239q-201 14 -307 153.5t-106 407.5zM264 676q0 -197 68.5 -295t191.5 -115v871 q-117 -16 -188.5 -110.5t-71.5 -301.5v-49z" />
<glyph unicode="&#xa3;" horiz-adv-x="1155" d="M59 631v133h191v291q0 186 113.5 280.5t287.5 94.5q172 0 282.5 -93.5t110.5 -279.5v-35h-147v37q0 129 -69.5 187.5t-176.5 58.5q-109 0 -181.5 -58.5t-72.5 -183.5v-299h344v-133h-344l-14 -496h668v-135h-965v135h164v496h-191z" />
<glyph unicode="&#xa4;" horiz-adv-x="1155" d="M63 1139l91 90l116 -115q61 55 141.5 82t163.5 27q86 0 165 -27t143 -82l114 115l90 -90l-112 -111q55 -61 80.5 -144t25.5 -167q0 -86 -25.5 -168t-80.5 -146l112 -112l-88 -88l-114 116q-63 -57 -143 -84.5t-167 -27.5q-84 0 -164.5 27.5t-144.5 84.5l-112 -116l-88 88 l110 112q-55 63 -80.5 145.5t-25.5 168.5q0 84 25.5 167t80.5 144zM190 717q0 -106 53.5 -195.5t140.5 -142.5t191 -53t192.5 53t141 142t52.5 196q0 104 -53.5 192t-140.5 141.5t-192 53.5q-104 0 -191 -53.5t-140.5 -141.5t-53.5 -192z" />
<glyph unicode="&#xa5;" horiz-adv-x="1140" d="M20 1405h177l262 -467q18 -33 52 -93.5t60 -103.5h9q23 41 55.5 101.5t52.5 95.5l260 467h172l-311 -533q-16 -29 -48 -76.5t-54 -82.5h350v-117h-408v-145h408v-117h-408v-334h-155v334h-410v117h410v145h-410v117h352q-23 35 -54.5 82t-45.5 71z" />
<glyph unicode="&#xa6;" horiz-adv-x="503" d="M186 -367v758h131v-758h-131zM186 723v758h131v-758h-131z" />
<glyph unicode="&#xa7;" horiz-adv-x="1153" d="M100 555q0 96 52.5 169t142.5 118q-74 41 -121 103.5t-47 160.5q0 147 119 235.5t336 88.5q162 0 259 -43.5t141 -112t44 -144.5v-19t-2 -17h-158v24q0 41 -22.5 84t-85 73t-185.5 30q-137 0 -212.5 -52.5t-75.5 -148.5q0 -66 42 -108t110.5 -69.5t150.5 -51t164 -51 t150.5 -67.5t110.5 -101.5t42 -153.5q0 -98 -53.5 -171t-143.5 -116q74 -41 122 -103.5t48 -160.5q0 -147 -119 -235.5t-336 -88.5q-162 0 -260 43t-141 111.5t-43 144.5v19.5t2 17.5h158v-24q0 -41 21.5 -85t85 -73t186.5 -29q135 0 211.5 52.5t76.5 148.5q0 66 -42 107.5 t-110.5 69.5t-150.5 51.5t-165 51t-151.5 67.5t-109.5 101.5t-41 153.5zM254 584q0 -76 44 -125t114.5 -81t155.5 -55.5t167 -52.5q74 27 120 78t46 123q0 78 -44 126t-115.5 79t-157.5 55.5t-168 52.5q-72 -27 -117 -78t-45 -122z" />
<glyph unicode="&#xa8;" horiz-adv-x="540" d="M0 1307v168h162v-168h-162zM379 1307v168h162v-168h-162z" />
<glyph unicode="&#xa9;" horiz-adv-x="1527" d="M37 702q0 158 53 291t151.5 230.5t230.5 152t292 54.5q158 0 291 -54.5t230 -152t151.5 -230.5t54.5 -291t-54.5 -290.5t-151.5 -230t-230 -152t-291 -54.5q-160 0 -292 54.5t-230.5 152t-151.5 230.5t-53 290zM125 702q0 -186 82 -331.5t226.5 -228.5t330.5 -83 q184 0 327.5 83t226.5 228.5t83 331.5t-83 331t-226.5 227.5t-327.5 82.5q-186 0 -330.5 -82.5t-226.5 -227t-82 -331.5zM414 700q0 238 92 335.5t250 97.5q139 0 229 -75t90 -259h-108q0 137 -59.5 188t-151.5 51q-109 0 -172.5 -74.5t-63.5 -236.5v-53q0 -162 64.5 -237 t171.5 -75q92 0 153.5 53.5t61.5 186.5h104q0 -172 -89 -253t-230 -81q-156 0 -249 97.5t-93 334.5z" />
<glyph unicode="&#xaa;" horiz-adv-x="776" d="M49 874q0 100 62.5 153.5t169 73t241.5 19.5v90q0 57 -34.5 92t-135.5 35q-94 0 -129 -34.5t-35 -81.5v-23h-104q-2 6 -2 14.5v16.5q0 102 79 151.5t204 49.5q127 0 195.5 -55.5t68.5 -153.5v-404q0 -47 39 -47h57v-72q-23 -6 -44.5 -10t-45.5 -4q-59 0 -82 30.5 t-27 80.5h-10q-37 -57 -100.5 -88t-141.5 -31q-57 0 -108 19.5t-84 62.5t-33 116zM164 879q0 -57 37 -84t92 -27t108.5 26.5t87 72.5t33.5 106v57q-178 2 -268 -30.5t-90 -120.5z" />
<glyph unicode="&#xab;" horiz-adv-x="1105" d="M121 668l338 409h125l-277 -409l277 -410h-125zM502 668l336 409h127l-279 -409l279 -410h-127z" />
<glyph unicode="&#xac;" d="M147 766v131h953v-489h-137v358h-816z" />
<glyph unicode="&#xad;" horiz-adv-x="681" d="M82 475v160h518v-160h-518z" />
<glyph unicode="&#xae;" horiz-adv-x="1527" d="M37 702q0 158 53 291t151.5 230.5t230.5 152t292 54.5q158 0 291 -54.5t230 -152t151.5 -230.5t54.5 -291t-54.5 -290.5t-151.5 -230t-230 -152t-291 -54.5q-160 0 -292 54.5t-230.5 152t-151.5 230.5t-53 290zM125 702q0 -186 82 -331.5t226.5 -228.5t330.5 -83 q184 0 327.5 83t226.5 228.5t83 331.5t-83 331t-226.5 227.5t-327.5 82.5q-186 0 -330.5 -82.5t-226.5 -227t-82 -331.5zM485 279v843h361q127 0 190.5 -66.5t63.5 -183.5q0 -86 -38 -150.5t-112 -92.5l178 -350h-116l-166 331h-254v-331h-107zM592 705h256q63 0 102 44 t39 123q0 74 -35.5 115t-105.5 41h-256v-323z" />
<glyph unicode="&#xaf;" horiz-adv-x="610" d="M0 1319v115h610v-115h-610z" />
<glyph unicode="&#xb0;" horiz-adv-x="819" d="M147 1167q0 74 36 133.5t96.5 94.5t132.5 35q74 0 133 -35t94 -94.5t35 -133.5t-35 -133t-94 -94t-133 -35q-72 0 -132.5 35t-96.5 94.5t-36 132.5zM238 1167q0 -70 51 -122t123 -52t121 52.5t49 121.5q0 70 -49.5 121t-120.5 51q-72 0 -123 -51t-51 -121z" />
<glyph unicode="&#xb1;" d="M152 0v135h966v-135h-966zM152 700v134h415v458h133v-458h418v-134h-418v-454h-133v454h-415z" />
<glyph unicode="&#xb2;" horiz-adv-x="698" d="M86 901v45q0 61 32 107.5t81 83.5t100 71q76 51 135.5 102.5t59.5 119.5q0 47 -36 76.5t-102 29.5q-86 0 -118.5 -41t-32.5 -92v-51h-105q-2 10 -4 25.5t-2 31.5q0 119 80 171t186 52q115 0 179.5 -55t64.5 -150q0 -70 -37 -123t-93 -95t-114 -79q-49 -35 -90 -64.5 t-55 -61.5h393v-103h-522z" />
<glyph unicode="&#xb3;" horiz-adv-x="698" d="M80 1098v22h108v-22q0 -61 41 -93t113 -32q74 0 120 28.5t46 96.5t-52.5 91t-115.5 23h-96v97h100q57 0 101 26.5t44 91.5q0 55 -38.5 82t-96.5 27q-61 0 -104 -29.5t-43 -89.5v-26h-113v28q0 94 74 153.5t184 59.5q109 0 179.5 -52t70.5 -150q0 -57 -28.5 -97.5 t-71.5 -60.5v-4q53 -23 86 -67t33 -107q0 -102 -76 -159.5t-193 -57.5q-135 0 -203.5 58t-68.5 163z" />
<glyph unicode="&#xb4;" horiz-adv-x="362" d="M0 1210l182 271h178l2 -6l-229 -265h-133z" />
<glyph unicode="&#xb5;" horiz-adv-x="1142" d="M143 -362v1439h148v-737q0 -94 31.5 -145.5t86 -70t126.5 -18.5q80 0 152.5 40t118.5 115t46 179v637h147v-1077h-116l-15 170h-14q-66 -113 -154 -154t-194 -41q-68 0 -126 17.5t-97 52.5q8 -63 8 -135v-272h-148z" />
<glyph unicode="&#xb6;" horiz-adv-x="1134" d="M111 956q0 145 63.5 246t169 152t234.5 51h460v-109h-131v-1646h-123v1646h-149v-1646h-121v862q-111 12 -202 69.5t-146 153.5t-55 221z" />
<glyph unicode="&#xb7;" horiz-adv-x="681" d="M252 631v198h178v-198h-178z" />
<glyph unicode="&#xb8;" horiz-adv-x="405" d="M0 -266h203q76 0 76 57q0 25 -16.5 39t-61.5 14h-111l35 179h104l-16 -107q80 0 136.5 -25.5t56.5 -97.5q0 -57 -33 -89t-85.5 -45t-109.5 -13q-45 0 -91 5t-87 11v72z" />
<glyph unicode="&#xb9;" horiz-adv-x="698" d="M117 901v100h186v461h-186v78q68 4 130 22.5t109 61.5h58v-623h172v-100h-469z" />
<glyph unicode="&#xba;" horiz-adv-x="763" d="M63 1053q0 193 84 285t240 92q152 0 233.5 -92.5t81.5 -284.5q0 -197 -83.5 -288t-237.5 -91t-236 91t-82 288zM180 1034q0 -266 203 -266q102 0 153.5 64.5t51.5 201.5v33q0 139 -51.5 202.5t-153.5 63.5q-100 0 -151.5 -63.5t-51.5 -200.5v-35z" />
<glyph unicode="&#xbb;" horiz-adv-x="1105" d="M141 258l277 410l-277 409h125l338 -409l-338 -410h-125zM520 258l279 410l-279 409h127l338 -409l-338 -410h-127z" />
<glyph unicode="&#xbc;" horiz-adv-x="1722" d="M117 696v101h186v460h-186v78q68 4 130 22.5t109 61.5h58v-622h172v-101h-469zM246 -25l1118 1455h127l-1118 -1455h-127zM1036 166v86q63 111 111.5 227.5t77.5 249.5h121q-23 -92 -58 -185t-70.5 -168t-62.5 -114h223v215q10 31 20.5 66t18.5 67h68v-348h98v-96h-98 v-166h-107v166h-342z" />
<glyph unicode="&#xbd;" horiz-adv-x="1722" d="M117 696v101h186v460h-186v78q68 4 130 22.5t109 61.5h58v-622h172v-101h-469zM246 -25l1118 1455h127l-1118 -1455h-127zM1083 0v45q0 61 32 107.5t81 83t100 71.5q76 51 135.5 102.5t59.5 118.5q0 47 -36 77t-101 30q-86 0 -119 -41t-33 -92v-51h-104q-2 10 -4 25.5 t-2 31.5q0 119 79.5 171t186.5 52q115 0 179.5 -55t64.5 -150q0 -70 -37 -123t-93.5 -95t-113.5 -79q-49 -35 -90 -64.5t-56 -62.5h394v-102h-523z" />
<glyph unicode="&#xbe;" horiz-adv-x="1722" d="M80 893v22h108v-22q0 -61 41 -93t113 -32q74 0 120 28.5t46 96.5t-52.5 91.5t-115.5 23.5h-96v96h100q57 0 101 26.5t44 92.5q0 55 -38.5 81.5t-96.5 26.5q-61 0 -104 -29.5t-43 -89.5v-26h-113v28q0 94 74 153.5t184 59.5q109 0 179.5 -52t70.5 -150q0 -57 -28.5 -97.5 t-71.5 -60.5v-4q53 -23 86 -67t33 -107q0 -102 -76 -159.5t-193 -57.5q-135 0 -203.5 58t-68.5 163zM246 -25l1118 1455h127l-1118 -1455h-127zM1036 166v86q63 111 111.5 227.5t77.5 249.5h121q-23 -92 -58 -185t-70.5 -168t-62.5 -114h223v215q10 31 20.5 66t18.5 67h68 v-348h98v-96h-98v-166h-107v166h-342z" />
<glyph unicode="&#xbf;" horiz-adv-x="1150" d="M154 10q0 121 36.5 196t91 123t109.5 87t92 85t37 120v106h144v-125q0 -90 -35 -147.5t-88.5 -99.5t-105.5 -84t-88 -99t-36 -147q0 -29 9.5 -70t37 -81t82 -66.5t144.5 -26.5q102 0 161.5 33.5t89 82t40 96.5t10.5 75q0 16 -1 30.5t-1 28.5h147q2 -8 5 -26.5t3 -43.5 q0 -45 -19.5 -112.5t-69.5 -136t-141.5 -115.5t-234.5 -47q-135 0 -218 42t-127 103.5t-59 121.5t-15 97zM506 885v190h172v-190h-172z" />
<glyph unicode="&#xc0;" horiz-adv-x="1370" d="M16 0l559 1405h218l561 -1405h-174l-148 371h-704l-146 -371h-166zM383 510h594l-184 469q-8 23 -26.5 72t-40 107.5t-40.5 107.5h-14q-12 -39 -31.5 -92.5t-39 -105.5t-34.5 -89zM401 1772l2 6h185l182 -271h-139z" />
<glyph unicode="&#xc1;" horiz-adv-x="1370" d="M16 0l559 1405h218l561 -1405h-174l-148 371h-704l-146 -371h-166zM383 510h594l-184 469q-8 23 -26.5 72t-40 107.5t-40.5 107.5h-14q-12 -39 -31.5 -92.5t-39 -105.5t-34.5 -89zM614 1507l183 271h184l2 -6l-227 -265h-142z" />
<glyph unicode="&#xc2;" horiz-adv-x="1370" d="M16 0l559 1405h218l561 -1405h-174l-148 371h-704l-146 -371h-166zM383 510h594l-184 469q-8 23 -26.5 72t-40 107.5t-40.5 107.5h-14q-12 -39 -31.5 -92.5t-39 -105.5t-34.5 -89zM393 1507l215 271h154l217 -271h-150l-143 179l-143 -179h-150z" />
<glyph unicode="&#xc3;" horiz-adv-x="1370" d="M16 0l559 1405h218l561 -1405h-174l-148 371h-704l-146 -371h-166zM367 1581q4 78 44 131t126 53q51 0 102 -17t98 -33.5t92 -16.5q33 0 48.5 19.5t19.5 47.5h104q-2 -76 -44 -130t-128 -54q-49 0 -99 17.5t-98 35t-91 17.5q-35 0 -51.5 -19.5t-20.5 -50.5h-102zM383 510 h594l-184 469q-8 23 -26.5 72t-40 107.5t-40.5 107.5h-14q-12 -39 -31.5 -92.5t-39 -105.5t-34.5 -89z" />
<glyph unicode="&#xc4;" horiz-adv-x="1370" d="M16 0l559 1405h218l561 -1405h-174l-148 371h-704l-146 -371h-166zM383 510h594l-184 469q-8 23 -26.5 72t-40 107.5t-40.5 107.5h-14q-12 -39 -31.5 -92.5t-39 -105.5t-34.5 -89zM414 1604v168h164v-168h-164zM793 1604v168h161v-168h-161z" />
<glyph unicode="&#xc5;" horiz-adv-x="1370" d="M16 0l559 1405h218l561 -1405h-174l-148 371h-704l-146 -371h-166zM383 510h594l-184 469q-8 23 -26.5 72t-40 107.5t-40.5 107.5h-14q-12 -39 -31.5 -92.5t-39 -105.5t-34.5 -89zM489 1681q0 80 55.5 132.5t141.5 52.5q84 0 139.5 -52.5t55.5 -132.5q0 -82 -55.5 -134 t-139.5 -52q-86 0 -141.5 52t-55.5 134zM584 1681q0 -45 28.5 -72.5t73.5 -27.5t72.5 27.5t27.5 72.5q0 43 -27.5 71t-72.5 28t-73.5 -28t-28.5 -71z" />
<glyph unicode="&#xc6;" horiz-adv-x="2048" d="M-4 0l721 1405h1202v-139h-950l118 -475h742v-142h-707l129 -510h680v-139h-811l-96 379h-664l-192 -379h-172zM430 518h559l-137 559q-10 43 -20.5 86t-20.5 84h-14q-20 -41 -43 -84t-43 -86z" />
<glyph unicode="&#xc7;" horiz-adv-x="1499" d="M111 702q0 362 176 545t493 183q182 0 320.5 -57.5t217.5 -174.5t79 -295h-164q0 199 -123 293t-332 94q-229 0 -364 -135t-135 -438v-43q0 -297 135 -428t366 -131q211 0 334 93t123 294h160q0 -172 -74 -286t-202 -173t-294 -66l-8 -61q78 0 134.5 -25.5t56.5 -97.5 q0 -57 -33 -89t-84.5 -45t-110.5 -13q-43 0 -90 5t-86 11v72h201q78 0 78 57q0 25 -16.5 39t-61.5 14h-111l25 133q-297 14 -453.5 194.5t-156.5 530.5z" />
<glyph unicode="&#xc8;" horiz-adv-x="1390" d="M186 0v1405h1076v-139h-914v-475h823v-142h-823v-510h926v-139h-1088zM455 1772l2 6h184l184 -271h-141z" />
<glyph unicode="&#xc9;" horiz-adv-x="1390" d="M186 0v1405h1076v-139h-914v-475h823v-142h-823v-510h926v-139h-1088zM668 1507l182 271h184l2 -6l-227 -265h-141z" />
<glyph unicode="&#xca;" horiz-adv-x="1390" d="M186 0v1405h1076v-139h-914v-475h823v-142h-823v-510h926v-139h-1088zM446 1507l216 271h155l215 -271h-149l-144 179l-143 -179h-150z" />
<glyph unicode="&#xcb;" horiz-adv-x="1390" d="M186 0v1405h1076v-139h-914v-475h823v-142h-823v-510h926v-139h-1088zM469 1604v168h162v-168h-162zM846 1604v168h164v-168h-164z" />
<glyph unicode="&#xcc;" horiz-adv-x="532" d="M-16 1772l2 6h184l184 -271h-141zM186 0v1405h162v-1405h-162z" />
<glyph unicode="&#xcd;" horiz-adv-x="532" d="M186 0v1405h162v-1405h-162zM197 1507l182 271h184l2 -6l-227 -265h-141z" />
<glyph unicode="&#xce;" horiz-adv-x="532" d="M-25 1507l215 271h156l215 -271h-149l-144 179l-143 -179h-150zM186 0v1405h162v-1405h-162z" />
<glyph unicode="&#xcf;" horiz-adv-x="532" d="M-2 1604v168h162v-168h-162zM186 0v1405h162v-1405h-162zM375 1604v168h164v-168h-164z" />
<glyph unicode="&#xd0;" horiz-adv-x="1509" d="M0 647v131h186v627h506q336 0 520.5 -167t184.5 -536q0 -367 -184.5 -534.5t-520.5 -167.5h-506v647h-186zM348 139h338q166 0 288 54.5t188.5 172t66.5 312.5v43q0 199 -65.5 318.5t-187.5 173t-290 53.5h-338v-488h424v-131h-424v-508z" />
<glyph unicode="&#xd1;" horiz-adv-x="1509" d="M186 0v1405h158l719 -971q16 -23 46 -64.5t48 -70.5h10v1106h158v-1405h-141l-733 991q-14 20 -45 64.5t-54 74.5h-8v-1130h-158zM444 1581q2 78 42 131t126 53q53 0 103.5 -17t98.5 -33.5t91 -16.5q35 0 49.5 19.5t18.5 47.5h106q-4 -76 -46 -130t-126 -54 q-51 0 -101 17.5t-98.5 35t-91.5 17.5q-35 0 -51 -19.5t-18 -50.5h-103z" />
<glyph unicode="&#xd2;" horiz-adv-x="1619" d="M111 702q0 365 185 546.5t513 181.5t513 -181.5t185 -546.5t-185 -546t-513 -181t-513 181.5t-185 545.5zM279 680q0 -199 66.5 -324t185 -183t278.5 -58q162 0 280.5 58t185 183t66.5 324v43q0 201 -66.5 326t-185 183t-280.5 58q-160 0 -278.5 -58t-185 -183 t-66.5 -326v-43zM524 1772l2 6h185l182 -271h-141z" />
<glyph unicode="&#xd3;" horiz-adv-x="1619" d="M111 702q0 365 185 546.5t513 181.5t513 -181.5t185 -546.5t-185 -546t-513 -181t-513 181.5t-185 545.5zM279 680q0 -199 66.5 -324t185 -183t278.5 -58q162 0 280.5 58t185 183t66.5 324v43q0 201 -66.5 326t-185 183t-280.5 58q-160 0 -278.5 -58t-185 -183 t-66.5 -326v-43zM735 1507l183 271h186l2 -6l-229 -265h-142z" />
<glyph unicode="&#xd4;" horiz-adv-x="1619" d="M111 702q0 365 185 546.5t513 181.5t513 -181.5t185 -546.5t-185 -546t-513 -181t-513 181.5t-185 545.5zM279 680q0 -199 66.5 -324t185 -183t278.5 -58q162 0 280.5 58t185 183t66.5 324v43q0 201 -66.5 326t-185 183t-280.5 58q-160 0 -278.5 -58t-185 -183 t-66.5 -326v-43zM514 1507l217 271h154l217 -271h-150l-143 179l-143 -179h-152z" />
<glyph unicode="&#xd5;" horiz-adv-x="1619" d="M111 702q0 365 185 546.5t513 181.5t513 -181.5t185 -546.5t-185 -546t-513 -181t-513 181.5t-185 545.5zM279 680q0 -199 66.5 -324t185 -183t278.5 -58q162 0 280.5 58t185 183t66.5 324v43q0 201 -66.5 326t-185 183t-280.5 58q-160 0 -278.5 -58t-185 -183 t-66.5 -326v-43zM489 1581q2 78 42 131t126 53q53 0 103.5 -17t98.5 -33.5t93 -16.5q33 0 48.5 19.5t19.5 47.5h104q-4 -76 -46 -130t-126 -54q-49 0 -99 17.5t-98 35t-93 17.5q-35 0 -50.5 -19.5t-19.5 -50.5h-103z" />
<glyph unicode="&#xd6;" horiz-adv-x="1619" d="M111 702q0 365 185 546.5t513 181.5t513 -181.5t185 -546.5t-185 -546t-513 -181t-513 181.5t-185 545.5zM279 680q0 -199 66.5 -324t185 -183t278.5 -58q162 0 280.5 58t185 183t66.5 324v43q0 201 -66.5 326t-185 183t-280.5 58q-160 0 -278.5 -58t-185 -183 t-66.5 -326v-43zM537 1604v168h161v-168h-161zM915 1604v168h162v-168h-162z" />
<glyph unicode="&#xd7;" d="M217 201l324 321l-324 322l94 96l324 -322l323 324l95 -98l-324 -322l322 -321l-95 -97l-321 324l-324 -326z" />
<glyph unicode="&#xd8;" horiz-adv-x="1619" d="M111 702q0 365 185 546.5t513 181.5q242 0 405 -97l132 172h141l-182 -239q98 -92 150 -232.5t52 -331.5q0 -365 -185 -546t-513 -181q-244 0 -408 99l-133 -174h-141l184 243q-96 90 -148 230.5t-52 328.5zM279 680q0 -139 32.5 -241.5t94.5 -170.5l718 946 q-66 39 -144.5 57.5t-170.5 18.5q-160 0 -278.5 -58t-185 -183t-66.5 -326v-43zM492 195q66 -41 145.5 -60.5t171.5 -19.5q162 0 280.5 58t185 183t66.5 324v43q0 141 -33.5 245.5t-97.5 172.5z" />
<glyph unicode="&#xd9;" horiz-adv-x="1505" d="M184 537v868h162v-901q0 -195 105.5 -291t296.5 -96q195 0 304 96t109 291v901h160v-868q0 -299 -152.5 -430.5t-420.5 -131.5q-264 0 -414 131.5t-150 430.5zM469 1772l2 6h184l183 -271h-142z" />
<glyph unicode="&#xda;" horiz-adv-x="1505" d="M184 537v868h162v-901q0 -195 105.5 -291t296.5 -96q195 0 304 96t109 291v901h160v-868q0 -299 -152.5 -430.5t-420.5 -131.5q-264 0 -414 131.5t-150 430.5zM680 1507l182 271h187l2 -6l-230 -265h-141z" />
<glyph unicode="&#xdb;" horiz-adv-x="1505" d="M184 537v868h162v-901q0 -195 105.5 -291t296.5 -96q195 0 304 96t109 291v901h160v-868q0 -299 -152.5 -430.5t-420.5 -131.5q-264 0 -414 131.5t-150 430.5zM459 1507l217 271h153l218 -271h-150l-143 179l-144 -179h-151z" />
<glyph unicode="&#xdc;" horiz-adv-x="1505" d="M184 537v868h162v-901q0 -195 105.5 -291t296.5 -96q195 0 304 96t109 291v901h160v-868q0 -299 -152.5 -430.5t-420.5 -131.5q-264 0 -414 131.5t-150 430.5zM481 1604v168h162v-168h-162zM860 1604v168h162v-168h-162z" />
<glyph unicode="&#xdd;" horiz-adv-x="1320" d="M20 1405h183l456 -674h9l454 674h178l-559 -817v-588h-161v588zM594 1507l184 271h185l2 -6l-230 -265h-141z" />
<glyph unicode="&#xde;" horiz-adv-x="1380" d="M176 0v1405h162v-250h526q141 0 236.5 -54t142.5 -149.5t47 -216.5q0 -127 -53 -224t-147.5 -151.5t-215.5 -54.5h-536v-305h-162zM338 444h522q121 0 194.5 78t73.5 213q0 129 -67.5 204t-200.5 75h-522v-570z" />
<glyph unicode="&#xdf;" horiz-adv-x="1261" d="M166 0v1061q0 160 67.5 257t177 142t240.5 45q225 0 341 -102.5t116 -255.5q0 -119 -66.5 -209t-183.5 -129v-8q141 -31 223 -129.5t82 -249.5q0 -139 -57 -233.5t-156.5 -141.5t-222.5 -47h-213v127h195q133 0 217 71.5t84 235.5q0 143 -88 217t-213 74h-195v129h172 q72 0 133.5 37t97 100.5t35.5 141.5q0 111 -77.5 179t-223.5 68q-158 0 -247 -79.5t-89 -239.5v-1061h-149z" />
<glyph unicode="&#xe0;" horiz-adv-x="1103" d="M72 272q0 147 94 225t260 107t377 29v137q0 98 -56.5 153.5t-214.5 55.5q-104 0 -162.5 -26.5t-82 -69.5t-23.5 -92v-33h-141q-2 10 -2 20v25q0 152 118.5 225.5t311.5 73.5t296 -83t103 -231v-618q0 -39 14.5 -54.5t43.5 -15.5h86v-94q-66 -29 -136 -29 q-82 0 -111.5 50.5t-35.5 126.5h-14q-59 -86 -161.5 -132.5t-223.5 -46.5q-86 0 -164 28t-127 93.5t-49 175.5zM227 279q0 -94 61.5 -136.5t153.5 -42.5q88 0 171 39t136.5 106.5t53.5 157.5v111q-287 0 -431.5 -48t-144.5 -187zM276 1475l3 6h176l182 -271h-133z" />
<glyph unicode="&#xe1;" horiz-adv-x="1103" d="M72 272q0 147 94 225t260 107t377 29v137q0 98 -56.5 153.5t-214.5 55.5q-104 0 -162.5 -26.5t-82 -69.5t-23.5 -92v-33h-141q-2 10 -2 20v25q0 152 118.5 225.5t311.5 73.5t296 -83t103 -231v-618q0 -39 14.5 -54.5t43.5 -15.5h86v-94q-66 -29 -136 -29 q-82 0 -111.5 50.5t-35.5 126.5h-14q-59 -86 -161.5 -132.5t-223.5 -46.5q-86 0 -164 28t-127 93.5t-49 175.5zM227 279q0 -94 61.5 -136.5t153.5 -42.5q88 0 171 39t136.5 106.5t53.5 157.5v111q-287 0 -431.5 -48t-144.5 -187zM444 1210l185 271h176l2 -6l-227 -265h-136z " />
<glyph unicode="&#xe2;" horiz-adv-x="1103" d="M72 272q0 147 94 225t260 107t377 29v137q0 98 -56.5 153.5t-214.5 55.5q-104 0 -162.5 -26.5t-82 -69.5t-23.5 -92v-33h-141q-2 10 -2 20v25q0 152 118.5 225.5t311.5 73.5t296 -83t103 -231v-618q0 -39 14.5 -54.5t43.5 -15.5h86v-94q-66 -29 -136 -29 q-82 0 -111.5 50.5t-35.5 126.5h-14q-59 -86 -161.5 -132.5t-223.5 -46.5q-86 0 -164 28t-127 93.5t-49 175.5zM227 279q0 -94 61.5 -136.5t153.5 -42.5q88 0 171 39t136.5 106.5t53.5 157.5v111q-287 0 -431.5 -48t-144.5 -187zM254 1210l215 271h141l217 -271h-143 l-143 179l-144 -179h-143z" />
<glyph unicode="&#xe3;" horiz-adv-x="1103" d="M72 272q0 147 94 225t260 107t377 29v137q0 98 -56.5 153.5t-214.5 55.5q-104 0 -162.5 -26.5t-82 -69.5t-23.5 -92v-33h-141q-2 10 -2 20v25q0 152 118.5 225.5t311.5 73.5t296 -83t103 -231v-618q0 -39 14.5 -54.5t43.5 -15.5h86v-94q-66 -29 -136 -29 q-82 0 -111.5 50.5t-35.5 126.5h-14q-59 -86 -161.5 -132.5t-223.5 -46.5q-86 0 -164 28t-127 93.5t-49 175.5zM221 1288q4 78 43 131.5t127 53.5q51 0 101.5 -17.5t98.5 -35t93 -17.5q33 0 48.5 20.5t19.5 49.5h104q-2 -76 -45 -130.5t-127 -54.5q-49 0 -99 17.5t-98.5 35 t-93.5 17.5q-35 0 -50 -20.5t-19 -49.5h-103zM227 279q0 -94 61.5 -136.5t153.5 -42.5q88 0 171 39t136.5 106.5t53.5 157.5v111q-287 0 -431.5 -48t-144.5 -187z" />
<glyph unicode="&#xe4;" horiz-adv-x="1103" d="M72 272q0 147 94 225t260 107t377 29v137q0 98 -56.5 153.5t-214.5 55.5q-104 0 -162.5 -26.5t-82 -69.5t-23.5 -92v-33h-141q-2 10 -2 20v25q0 152 118.5 225.5t311.5 73.5t296 -83t103 -231v-618q0 -39 14.5 -54.5t43.5 -15.5h86v-94q-66 -29 -136 -29 q-82 0 -111.5 50.5t-35.5 126.5h-14q-59 -86 -161.5 -132.5t-223.5 -46.5q-86 0 -164 28t-127 93.5t-49 175.5zM227 279q0 -94 61.5 -136.5t153.5 -42.5q88 0 171 39t136.5 106.5t53.5 157.5v111q-287 0 -431.5 -48t-144.5 -187zM268 1307v168h162v-168h-162zM647 1307v168 h162v-168h-162z" />
<glyph unicode="&#xe5;" horiz-adv-x="1103" d="M72 272q0 147 94 225t260 107t377 29v137q0 98 -56.5 153.5t-214.5 55.5q-104 0 -162.5 -26.5t-82 -69.5t-23.5 -92v-33h-141q-2 10 -2 20v25q0 152 118.5 225.5t311.5 73.5t296 -83t103 -231v-618q0 -39 14.5 -54.5t43.5 -15.5h86v-94q-66 -29 -136 -29 q-82 0 -111.5 50.5t-35.5 126.5h-14q-59 -86 -161.5 -132.5t-223.5 -46.5q-86 0 -164 28t-127 93.5t-49 175.5zM227 279q0 -94 61.5 -136.5t153.5 -42.5q88 0 171 39t136.5 106.5t53.5 157.5v111q-287 0 -431.5 -48t-144.5 -187zM352 1374q0 80 53.5 132.5t135.5 52.5 q80 0 133 -52.5t53 -132.5q0 -82 -53 -134t-133 -52q-82 0 -135.5 52t-53.5 134zM438 1374q0 -47 29 -75.5t74 -28.5q43 0 71.5 28.5t28.5 75.5q0 45 -28.5 75t-71.5 30q-45 0 -74 -30t-29 -75z" />
<glyph unicode="&#xe6;" horiz-adv-x="1828" d="M72 272q0 109 55 178.5t156.5 108.5t237.5 53.5t298 14.5v143q0 96 -58.5 152.5t-223.5 56.5q-158 0 -215.5 -55.5t-57.5 -132.5v-33h-141q-2 10 -2 20v25q0 152 119.5 225.5t314.5 73.5q139 0 233.5 -45t135.5 -127q59 88 154.5 130t219.5 42q219 0 334 -128t115 -374 v-92h-776q2 -219 85 -314.5t236 -95.5q154 0 227.5 78t77.5 186h144q-2 -106 -52.5 -194t-149.5 -140.5t-251 -52.5q-143 0 -244.5 54.5t-156.5 169.5q-59 -90 -136 -138.5t-159 -67t-160 -18.5q-88 0 -171 28t-136 93.5t-53 175.5zM227 279q0 -94 62.5 -136.5t156.5 -42.5 t179.5 37t139.5 105.5t54 160.5v105q-293 0 -442.5 -47t-149.5 -182zM973 625h620q0 133 -38.5 210.5t-107.5 109.5t-155 32q-152 0 -230.5 -83t-88.5 -269z" />
<glyph unicode="&#xe7;" horiz-adv-x="1034" d="M74 539q0 281 119.5 422t351.5 141q223 0 319.5 -115t96.5 -307h-146q0 154 -62.5 225.5t-211.5 71.5q-92 0 -163 -40t-111 -131t-40 -243v-49q0 -217 82 -315.5t232 -98.5q154 0 215 79t61 218h144q0 -113 -39 -206t-127 -151t-232 -65l-8 -59q78 0 134 -25.5t56 -97.5 q0 -57 -32.5 -89t-84 -45t-110.5 -13q-43 0 -90 5t-86 11v72h201q78 0 78 57q0 25 -16.5 39t-61.5 14h-111l27 136q-188 23 -286.5 161t-98.5 398z" />
<glyph unicode="&#xe8;" horiz-adv-x="1107" d="M82 539q0 291 124 427t365 136q223 0 340 -132t117 -376v-94h-792q0 -215 85 -308.5t244 -93.5q158 0 232.5 78t79.5 186h143q-2 -106 -52 -194t-151.5 -140.5t-257.5 -52.5q-231 0 -354 136.5t-123 427.5zM236 616h638q0 201 -87 281t-224 80q-152 0 -233.5 -86.5 t-93.5 -274.5zM299 1475l2 6h178l183 -271h-134z" />
<glyph unicode="&#xe9;" horiz-adv-x="1107" d="M82 539q0 291 124 427t365 136q223 0 340 -132t117 -376v-94h-792q0 -215 85 -308.5t244 -93.5q158 0 232.5 78t79.5 186h143q-2 -106 -52 -194t-151.5 -140.5t-257.5 -52.5q-231 0 -354 136.5t-123 427.5zM236 616h638q0 201 -87 281t-224 80q-152 0 -233.5 -86.5 t-93.5 -274.5zM469 1210l182 271h178l2 -6l-229 -265h-133z" />
<glyph unicode="&#xea;" horiz-adv-x="1107" d="M82 539q0 291 124 427t365 136q223 0 340 -132t117 -376v-94h-792q0 -215 85 -308.5t244 -93.5q158 0 232.5 78t79.5 186h143q-2 -106 -52 -194t-151.5 -140.5t-257.5 -52.5q-231 0 -354 136.5t-123 427.5zM236 616h638q0 201 -87 281t-224 80q-152 0 -233.5 -86.5 t-93.5 -274.5zM276 1210l216 271h143l217 -271h-145l-144 179l-143 -179h-144z" />
<glyph unicode="&#xeb;" horiz-adv-x="1107" d="M82 539q0 291 124 427t365 136q223 0 340 -132t117 -376v-94h-792q0 -215 85 -308.5t244 -93.5q158 0 232.5 78t79.5 186h143q-2 -106 -52 -194t-151.5 -140.5t-257.5 -52.5q-231 0 -354 136.5t-123 427.5zM236 616h638q0 201 -87 281t-224 80q-152 0 -233.5 -86.5 t-93.5 -274.5zM291 1307v168h164v-168h-164zM670 1307v168h164v-168h-164z" />
<glyph unicode="&#xec;" horiz-adv-x="436" d="M-45 1475l2 6h176l182 -271h-133zM143 0v1077h148v-1077h-148z" />
<glyph unicode="&#xed;" horiz-adv-x="436" d="M125 1210l182 271h176l2 -6l-227 -265h-133zM143 0v1077h148v-1077h-148z" />
<glyph unicode="&#xee;" horiz-adv-x="436" d="M-68 1210l215 271h142l217 -271h-144l-143 179l-143 -179h-144zM143 0v1077h148v-1077h-148z" />
<glyph unicode="&#xef;" horiz-adv-x="436" d="M-53 1307v168h162v-168h-162zM143 0v1077h148v-1077h-148zM326 1307v168h161v-168h-161z" />
<glyph unicode="&#xf0;" horiz-adv-x="1116" d="M78 537q0 283 120.5 422t338.5 139q90 0 170 -31l4 4q-39 55 -83 105.5t-91 97.5l-287 -23v105l184 14q-72 57 -139 105l6 6h184q68 -47 127 -99l281 23v-105l-176 -14q150 -154 236.5 -340t86.5 -409q0 -295 -126 -428.5t-359 -133.5q-231 0 -354 136.5t-123 425.5z M231 512q0 -219 84 -315.5t244 -96.5q158 0 242 96.5t84 315.5v49q0 219 -84 314.5t-242 95.5q-160 0 -244 -95.5t-84 -314.5v-49z" />
<glyph unicode="&#xf1;" horiz-adv-x="1132" d="M143 0v1077h117l14 -170h15q70 109 163 152t205 43q154 0 248 -78t94 -272v-752h-147v737q0 94 -32 145.5t-87 70t-125 18.5q-82 0 -154.5 -40t-117.5 -115t-45 -179v-637h-148zM250 1288q4 78 44 131.5t126 53.5q51 0 102 -17.5t99.5 -35t91.5 -17.5q33 0 48 20.5 t19 49.5h105q-2 -76 -44 -130.5t-128 -54.5q-49 0 -99.5 17.5t-98.5 35t-91 17.5q-35 0 -51.5 -20.5t-20.5 -49.5h-102z" />
<glyph unicode="&#xf2;" horiz-adv-x="1138" d="M82 539q0 291 126 427t361 136q238 0 363 -136.5t125 -426.5q0 -291 -125 -427.5t-363 -136.5q-236 0 -361.5 136.5t-125.5 427.5zM236 514q0 -217 85.5 -315.5t247.5 -98.5t248 98.5t86 315.5v49q0 217 -86 315.5t-248 98.5t-247.5 -98.5t-85.5 -315.5v-49zM305 1475 l2 6h178l183 -271h-133z" />
<glyph unicode="&#xf3;" horiz-adv-x="1138" d="M82 539q0 291 126 427t361 136q238 0 363 -136.5t125 -426.5q0 -291 -125 -427.5t-363 -136.5q-236 0 -361.5 136.5t-125.5 427.5zM236 514q0 -217 85.5 -315.5t247.5 -98.5t248 98.5t86 315.5v49q0 217 -86 315.5t-248 98.5t-247.5 -98.5t-85.5 -315.5v-49zM475 1210 l182 271h179l2 -6l-230 -265h-133z" />
<glyph unicode="&#xf4;" horiz-adv-x="1138" d="M82 539q0 291 126 427t361 136q238 0 363 -136.5t125 -426.5q0 -291 -125 -427.5t-363 -136.5q-236 0 -361.5 136.5t-125.5 427.5zM236 514q0 -217 85.5 -315.5t247.5 -98.5t248 98.5t86 315.5v49q0 217 -86 315.5t-248 98.5t-247.5 -98.5t-85.5 -315.5v-49zM283 1210 l215 271h143l215 -271h-143l-144 179l-143 -179h-143z" />
<glyph unicode="&#xf5;" horiz-adv-x="1138" d="M82 539q0 291 126 427t361 136q238 0 363 -136.5t125 -426.5q0 -291 -125 -427.5t-363 -136.5q-236 0 -361.5 136.5t-125.5 427.5zM236 514q0 -217 85.5 -315.5t247.5 -98.5t248 98.5t86 315.5v49q0 217 -86 315.5t-248 98.5t-247.5 -98.5t-85.5 -315.5v-49zM252 1288 q2 78 42 131.5t126 53.5q53 0 103 -17.5t98.5 -35t91.5 -17.5q33 0 48 20.5t19 49.5h107q-4 -76 -46 -130.5t-126 -54.5q-51 0 -101.5 17.5t-98.5 35t-91 17.5q-35 0 -51.5 -20.5t-18.5 -49.5h-102z" />
<glyph unicode="&#xf6;" horiz-adv-x="1138" d="M82 539q0 291 126 427t361 136q238 0 363 -136.5t125 -426.5q0 -291 -125 -427.5t-363 -136.5q-236 0 -361.5 136.5t-125.5 427.5zM236 514q0 -217 85.5 -315.5t247.5 -98.5t248 98.5t86 315.5v49q0 217 -86 315.5t-248 98.5t-247.5 -98.5t-85.5 -315.5v-49zM297 1307 v168h164v-168h-164zM676 1307v168h164v-168h-164z" />
<glyph unicode="&#xf7;" d="M152 455v135h966v-135h-966zM551 72v166h166v-166h-166zM551 809v166h166v-166h-166z" />
<glyph unicode="&#xf8;" horiz-adv-x="1138" d="M45 -100l158 217q-121 141 -121 422q0 291 126 427t361 136q178 0 291 -76l111 152h121l-156 -217q121 -141 121 -422q0 -291 -125 -427.5t-363 -136.5q-176 0 -288 74l-109 -149h-127zM236 514q0 -174 57 -272l487 673q-80 61 -211 62q-162 0 -247.5 -98.5t-85.5 -315.5 v-49zM360 162q78 -62 209 -62q162 0 248 98.5t86 315.5v49q0 174 -57 275z" />
<glyph unicode="&#xf9;" horiz-adv-x="1132" d="M133 326v751h148v-737q0 -94 31.5 -145.5t86 -70t123.5 -18.5q82 0 155 40t118 115t45 179v637h147v-1077h-115l-16 170h-14q-68 -109 -161 -152t-206 -43q-154 0 -248 78t-94 273zM303 1475l2 6h176l183 -271h-134z" />
<glyph unicode="&#xfa;" horiz-adv-x="1132" d="M133 326v751h148v-737q0 -94 31.5 -145.5t86 -70t123.5 -18.5q82 0 155 40t118 115t45 179v637h147v-1077h-115l-16 170h-14q-68 -109 -161 -152t-206 -43q-154 0 -248 78t-94 273zM471 1210l182 271h178l3 -6l-228 -265h-135z" />
<glyph unicode="&#xfb;" horiz-adv-x="1132" d="M133 326v751h148v-737q0 -94 31.5 -145.5t86 -70t123.5 -18.5q82 0 155 40t118 115t45 179v637h147v-1077h-115l-16 170h-14q-68 -109 -161 -152t-206 -43q-154 0 -248 78t-94 273zM279 1210l217 271h141l217 -271h-143l-144 179l-143 -179h-145z" />
<glyph unicode="&#xfc;" horiz-adv-x="1132" d="M133 326v751h148v-737q0 -94 31.5 -145.5t86 -70t123.5 -18.5q82 0 155 40t118 115t45 179v637h147v-1077h-115l-16 170h-14q-68 -109 -161 -152t-206 -43q-154 0 -248 78t-94 273zM295 1307v168h162v-168h-162zM674 1307v168h162v-168h-162z" />
<glyph unicode="&#xfd;" horiz-adv-x="1009" d="M33 1077h155l222 -573q14 -39 34.5 -97.5t42 -119t35.5 -107.5h13q12 45 30.5 104.5t37 118t32.5 99.5l190 575h150l-369 -1059q-41 -119 -90 -206.5t-120.5 -136t-180.5 -48.5q-39 0 -68.5 4t-48.5 9v110h80q53 0 102.5 18.5t92.5 72t78 159.5zM428 1210l182 271h178 l3 -6l-228 -265h-135z" />
<glyph unicode="&#xfe;" horiz-adv-x="1122" d="M143 -354v1841h148v-549h14q57 88 145.5 126t186.5 38q186 0 294.5 -134t108.5 -421q0 -301 -110.5 -436.5t-302.5 -135.5q-100 0 -184.5 40t-139.5 124h-12v-493h-148zM291 522q0 -203 72.5 -310.5t232.5 -107.5q133 0 212 90.5t79 317.5v51q0 217 -72 313.5t-217 96.5 q-74 0 -144.5 -33t-116.5 -122t-46 -255v-41z" />
<glyph unicode="&#xff;" horiz-adv-x="1009" d="M33 1077h155l222 -573q14 -39 34.5 -97.5t42 -119t35.5 -107.5h13q12 45 30.5 104.5t37 118t32.5 99.5l190 575h150l-369 -1059q-41 -119 -90 -206.5t-120.5 -136t-180.5 -48.5q-39 0 -68.5 4t-48.5 9v110h80q53 0 102.5 18.5t92.5 72t78 159.5zM252 1307v168h162v-168 h-162zM629 1307v168h164v-168h-164z" />
<glyph unicode="&#x152;" horiz-adv-x="2545" d="M111 702q0 365 185 546.5t511 181.5q381 0 534 -254v229h1076v-139h-916v-475h826v-142h-826v-510h928v-139h-1088v231q-155 -256 -534 -256q-326 0 -511 182.5t-185 544.5zM279 676q0 -295 144 -428t384 -133q162 0 281.5 58t186 182t66.5 321v43q0 203 -66.5 329 t-186 184t-281.5 58q-160 0 -278.5 -58t-184 -184t-65.5 -329v-43z" />
<glyph unicode="&#x153;" horiz-adv-x="1900" d="M82 539q0 291 125 427t358 136q141 0 241.5 -55.5t156.5 -169.5q55 115 158.5 170t246.5 55q219 0 335 -130t116 -378v-94h-781q2 -215 85 -308.5t239 -93.5q154 0 227.5 78t77.5 186h145q-2 -106 -52 -194t-150.5 -140.5t-251.5 -52.5q-141 0 -241.5 55.5t-155.5 168.5 q-57 -113 -159 -168.5t-245 -55.5q-231 0 -353 136.5t-122 427.5zM236 514q0 -221 83.5 -317.5t241.5 -96.5t242 96.5t84 317.5v49q0 221 -84 317.5t-242 96.5t-241.5 -96.5t-83.5 -317.5v-49zM1040 616h625q0 135 -40 214t-108.5 113t-154.5 34q-152 0 -231 -86.5 t-91 -274.5z" />
<glyph unicode="&#x178;" horiz-adv-x="1320" d="M20 1405h183l456 -674h9l454 674h178l-559 -817v-588h-161v588zM395 1604v168h162v-168h-162zM774 1604v168h162v-168h-162z" />
<glyph unicode="&#x2c6;" horiz-adv-x="573" d="M0 1210l215 271h143l215 -271h-143l-143 179l-144 -179h-143z" />
<glyph unicode="&#x2dc;" horiz-adv-x="634" d="M0 1288q4 78 43 131.5t127 53.5q51 0 101.5 -17.5t98.5 -35t93 -17.5q33 0 48 20.5t19 49.5h105q-2 -76 -45 -130.5t-127 -54.5q-49 0 -99.5 17.5t-98.5 35t-93 17.5q-35 0 -50.5 -20.5t-19.5 -49.5h-102z" />
<glyph unicode="&#x2000;" horiz-adv-x="933" />
<glyph unicode="&#x2001;" horiz-adv-x="1866" />
<glyph unicode="&#x2002;" horiz-adv-x="933" />
<glyph unicode="&#x2003;" horiz-adv-x="1866" />
<glyph unicode="&#x2004;" horiz-adv-x="622" />
<glyph unicode="&#x2005;" horiz-adv-x="466" />
<glyph unicode="&#x2006;" horiz-adv-x="311" />
<glyph unicode="&#x2007;" horiz-adv-x="311" />
<glyph unicode="&#x2008;" horiz-adv-x="233" />
<glyph unicode="&#x2009;" horiz-adv-x="373" />
<glyph unicode="&#x200a;" horiz-adv-x="103" />
<glyph unicode="&#x2010;" horiz-adv-x="681" d="M82 475v160h518v-160h-518z" />
<glyph unicode="&#x2011;" horiz-adv-x="681" d="M82 475v160h518v-160h-518z" />
<glyph unicode="&#x2012;" horiz-adv-x="681" d="M82 475v160h518v-160h-518z" />
<glyph unicode="&#x2013;" horiz-adv-x="1024" d="M0 492v126h1024v-126h-1024z" />
<glyph unicode="&#x2014;" horiz-adv-x="2048" d="M0 492v124h2048v-124h-2048z" />
<glyph unicode="&#x2018;" horiz-adv-x="448" d="M135 928v170q0 117 33 180t78 91t86 36v-74q-53 -14 -78 -71.5t-25 -139.5h80v-192h-174z" />
<glyph unicode="&#x2019;" horiz-adv-x="448" d="M117 928v73q53 14 77.5 71.5t24.5 139.5h-78v193h172v-170q0 -117 -32.5 -180.5t-77.5 -91t-86 -35.5z" />
<glyph unicode="&#x201a;" horiz-adv-x="448" d="M117 -211q53 14 77.5 71.5t24.5 139.5h-78v193h172v-170q0 -117 -32.5 -181.5t-77.5 -92.5t-86 -34v74z" />
<glyph unicode="&#x201c;" horiz-adv-x="720" d="M135 928v170q0 117 33 180t78 91t86 36v-74q-53 -14 -78 -71.5t-25 -139.5h80v-192h-174zM408 928v170q0 117 32.5 180t77.5 91t86 36v-74q-53 -14 -77.5 -71.5t-24.5 -139.5h80v-192h-174z" />
<glyph unicode="&#x201d;" horiz-adv-x="720" d="M117 928v73q53 14 77.5 71.5t24.5 139.5h-78v193h172v-170q0 -117 -32.5 -180.5t-77.5 -91t-86 -35.5zM391 928v73q51 14 76 71.5t25 139.5h-78v193h172v-170q0 -117 -32 -180.5t-78 -91t-85 -35.5z" />
<glyph unicode="&#x201e;" horiz-adv-x="720" d="M117 -211q53 14 77.5 71.5t24.5 139.5h-78v193h172v-170q0 -117 -32.5 -181.5t-77.5 -92.5t-86 -34v74zM391 -211q51 14 76 71.5t25 139.5h-78v193h172v-170q0 -117 -32 -181.5t-78 -92.5t-85 -34v74z" />
<glyph unicode="&#x2022;" horiz-adv-x="765" d="M139 702q0 106 68.5 176t175.5 70q106 0 176 -69.5t70 -176.5q0 -106 -70 -174.5t-176 -68.5t-175 68.5t-69 174.5z" />
<glyph unicode="&#x2026;" horiz-adv-x="1611" d="M186 0v193h172v-193h-172zM719 0v193h174v-193h-174zM1253 0v193h172v-193h-172z" />
<glyph unicode="&#x202f;" horiz-adv-x="373" />
<glyph unicode="&#x2039;" horiz-adv-x="724" d="M121 668l338 409h125l-277 -409l277 -410h-125z" />
<glyph unicode="&#x203a;" horiz-adv-x="724" d="M141 258l277 410l-277 409h125l338 -409l-338 -410h-125z" />
<glyph unicode="&#x205f;" horiz-adv-x="466" />
<glyph unicode="&#x20ac;" horiz-adv-x="1189" d="M51 508v117h148q0 18 -1 37.5t-1 39.5t1 39t1 39h-148v117h164q37 170 129 290t227.5 181.5t298.5 61.5q104 0 203 -31v-127q-76 25 -168 24q-193 0 -334 -100t-188 -299h545v-117h-566q-2 -20 -2 -38.5v-39.5v-39.5t2 -37.5h566v-117h-545q47 -199 188.5 -299 t333.5 -100q92 0 168 24v-127q-97 -31 -203 -31q-164 0 -299 61.5t-227 180.5t-129 291h-164z" />
<glyph unicode="&#x2122;" horiz-adv-x="1826" d="M109 1307v98h600v-98h-248v-721h-105v721h-247zM831 586v819h158l244 -670h6l246 670h153v-819h-104v657h-6l-246 -657h-100l-246 661h-6v-661h-99z" />
<glyph unicode="&#x25fc;" horiz-adv-x="1075" d="M0 0v1075h1075v-1075h-1075z" />
<glyph unicode="&#xfb03;" horiz-adv-x="1495" d="M23 952v125h159v189q0 57 17.5 110.5t64.5 87t133 33.5q84 0 146 -20v-105h-109q-104 0 -104 -104v-191h362v189q0 57 18.5 110.5t64.5 87t132 33.5q84 0 146 -20v-105h-109q-104 0 -104 -104v-191h213v-125h-213v-952h-148v952h-362v-952h-148v952h-159zM1202 0v1077 h148v-1077h-148zM1202 1298v183h148v-183h-148z" />
<glyph unicode="&#xfb04;" horiz-adv-x="1495" d="M23 952v125h159v189q0 57 17.5 110.5t64.5 87t133 33.5q84 0 146 -20v-105h-109q-104 0 -104 -104v-191h362v189q0 57 18.5 110.5t64.5 87t132 33.5q84 0 146 -20v-105h-109q-104 0 -104 -104v-191h213v-125h-213v-952h-148v952h-362v-952h-148v952h-159zM1202 0v1481 h148v-1481h-148z" />
</font>
</defs>
</svg>
