<?xml version="1.0" encoding="UTF-8" standalone="no"?>
<!DOCTYPE svg PUBLIC "-//W3C//DTD SVG 1.1//EN" "http://www.w3.org/Graphics/SVG/1.1/DTD/svg11.dtd">
<svg width="100%" height="100%" viewBox="0 0 890 307" version="1.1" xmlns="http://www.w3.org/2000/svg" xmlns:xlink="http://www.w3.org/1999/xlink" xml:space="preserve" xmlns:serif="http://www.serif.com/" style="fill-rule:evenodd;clip-rule:evenodd;stroke-linejoin:round;stroke-miterlimit:2;">
    <g transform="matrix(1,0,0,1,-2180.37118,-1344.971005)">
        <g transform="matrix(1.114442,0,0,1.114442,1197.431354,-238.752382)">
            <path d="M1181.853,1537.811C1185.886,1540.135 1189.246,1542.788 1191.933,1545.77C1198.979,1553.586 1202.502,1562.999 1202.502,1574.008C1202.502,1584.577 1199.695,1593.99 1194.08,1602.247C1188.465,1610.503 1180.209,1616.999 1169.31,1621.733C1158.411,1626.467 1145.034,1628.834 1129.181,1628.834C1112.447,1628.834 1097.2,1625.861 1083.438,1619.916C1069.849,1614.046 1058.782,1605.813 1050.239,1595.219L1085.801,1579.707C1089.186,1582.753 1092.967,1585.477 1097.145,1587.88C1105.952,1592.944 1116.411,1595.476 1128.521,1595.476C1137.108,1595.476 1143.989,1594.21 1149.163,1591.678C1154.337,1589.146 1156.924,1585.127 1156.924,1579.623C1156.924,1576.1 1155.713,1573.072 1153.291,1570.54C1150.869,1568.008 1146.025,1565.971 1138.759,1564.43L1109.695,1558.485C1093.084,1555.049 1080.654,1550.08 1072.404,1543.581C1071.14,1542.585 1069.974,1541.553 1068.906,1540.485C1060.87,1532.449 1056.851,1522.045 1056.851,1509.274C1056.851,1500.247 1059.549,1491.77 1064.943,1483.843C1070.338,1475.917 1078.429,1469.476 1089.218,1464.522C1100.007,1459.568 1113.438,1457.091 1129.512,1457.091C1146.025,1457.091 1160.392,1459.678 1172.612,1464.853C1184.666,1469.956 1194.202,1477.47 1201.221,1487.393L1165.082,1503.157C1162.168,1500.59 1158.953,1498.391 1155.438,1496.559C1147.622,1492.486 1139.42,1490.449 1130.833,1490.449C1124.668,1490.449 1119.383,1491.109 1114.98,1492.431C1110.576,1493.752 1107.273,1495.568 1105.071,1497.88C1102.869,1500.192 1101.769,1503.109 1101.769,1506.632C1101.769,1510.155 1103.31,1513.183 1106.392,1515.715C1109.33,1518.128 1114.566,1520.191 1122.102,1521.904C1122.474,1521.988 1122.853,1522.072 1123.236,1522.155L1156.924,1529.091C1167.003,1531.134 1175.313,1534.041 1181.853,1537.811Z"/>
        </g>
        <g transform="matrix(1.875198,0,0,0.905799,333.713056,-886.587315)">
            <path d="M1209.863,2563.945L1209.863,2633.489C1209.863,2649.201 1211.434,2660.105 1214.574,2666.2C1217.715,2672.295 1222.229,2675.343 1228.118,2675.343C1233.243,2675.343 1240.114,2669.95 1247.457,2653.84C1258.34,2629.963 1263.699,2586.884 1276.202,2549.725C1281.696,2533.395 1289.107,2519.993 1295.203,2514.429C1300.085,2509.972 1305.508,2507.927 1311.397,2507.927C1318.201,2507.927 1324.253,2510.636 1329.553,2516.054C1334.852,2521.472 1339.04,2529.667 1342.115,2540.638C1345.19,2551.61 1346.728,2565.358 1346.728,2581.883L1346.728,2715.165L1319.837,2715.165L1319.837,2597.73C1319.837,2580.393 1318.201,2568.405 1314.93,2561.768C1311.658,2555.131 1307.405,2551.813 1302.171,2551.813C1298.507,2551.813 1294.941,2553.641 1291.474,2557.298C1288.006,2560.956 1285.193,2566.848 1283.034,2574.975C1280.874,2583.102 1279.795,2593.938 1279.795,2607.483L1279.795,2715.165L1252.904,2715.165L1252.904,2674.292C1252.158,2677.743 1251.326,2681.142 1250.84,2683.083C1247.655,2694.971 1243.45,2703.837 1238.226,2709.679C1232.534,2716.046 1225.697,2719.229 1217.715,2719.229C1211.172,2719.229 1205.283,2716.79 1200.049,2711.914C1194.815,2707.038 1190.66,2699.25 1187.585,2688.549C1184.51,2677.849 1182.972,2663.965 1182.972,2646.898L1182.972,2588.227L1209.863,2563.945Z"/>
        </g>
        <g transform="matrix(1.875198,0,0,0.905799,261.56565,-886.587315)">
            <path d="M1494.278,2463.635L1497.419,2503.457C1496.895,2503.457 1496.339,2503.389 1495.75,2503.254C1495.162,2503.119 1494.54,2503.051 1493.886,2503.051C1487.997,2503.051 1483.515,2505.828 1480.44,2511.381C1477.365,2516.934 1475.828,2524.587 1475.828,2534.34L1464.836,2524.994C1464.836,2514.158 1465.883,2504.067 1467.976,2494.721C1470.07,2485.375 1473.178,2477.857 1477.3,2472.168C1481.422,2466.479 1486.362,2463.635 1492.119,2463.635L1494.278,2463.635ZM1462.088,2676.968C1472.687,2676.968 1480.866,2681.709 1486.623,2691.19C1492.381,2700.672 1495.26,2713.946 1495.26,2731.013C1495.26,2746.454 1493.101,2759.525 1488.782,2770.225C1484.464,2780.926 1478.412,2788.985 1470.626,2794.403C1462.84,2799.821 1453.844,2802.53 1443.637,2802.53C1426.757,2802.53 1414.424,2797.654 1406.638,2787.902C1398.852,2778.149 1394.959,2765.417 1394.959,2749.705C1394.959,2738.598 1397.02,2729.252 1401.142,2721.667C1405.264,2714.081 1412.101,2709.883 1421.653,2709.07L1420.672,2715.571C1413.867,2713.133 1408.666,2708.46 1405.067,2701.552C1401.469,2694.644 1399.67,2685.095 1399.67,2672.905C1399.67,2660.443 1401.992,2650.217 1406.638,2642.225C1411.283,2634.234 1417.597,2629.561 1425.579,2628.206L1437.356,2639.584L1434.608,2639.584C1428.981,2640.397 1425.023,2642.767 1422.733,2646.695C1420.443,2650.623 1419.298,2655.025 1419.298,2659.902C1419.298,2665.59 1420.378,2669.857 1422.537,2672.702C1424.696,2675.546 1427.804,2676.968 1431.86,2676.968L1462.088,2676.968ZM1443.833,2764.333C1450.638,2764.333 1456.232,2763.114 1460.616,2760.676C1464.999,2758.238 1468.271,2755.123 1470.43,2751.33C1472.589,2747.538 1473.669,2743.339 1473.669,2738.733C1473.669,2733.586 1472.687,2729.455 1470.724,2726.34C1468.761,2723.224 1465.228,2721.667 1460.125,2721.667L1426.953,2721.667C1423.813,2721.667 1421.228,2723.292 1419.2,2726.543C1417.172,2729.794 1416.157,2734.263 1416.157,2739.952C1416.157,2747.538 1418.611,2753.497 1423.518,2757.832C1428.425,2762.166 1435.197,2764.333 1443.833,2764.333ZM1444.03,2507.927C1453.19,2507.927 1461.139,2510.704 1467.878,2516.257C1474.617,2521.811 1479.786,2529.734 1483.385,2540.029C1486.983,2550.323 1488.782,2562.649 1488.782,2577.006C1488.782,2591.093 1486.983,2603.284 1483.385,2613.578C1479.786,2623.872 1474.617,2631.796 1467.878,2637.349C1461.139,2642.903 1453.19,2645.679 1444.03,2645.679C1429.505,2645.679 1418.382,2639.516 1410.662,2627.19C1402.941,2614.865 1399.081,2598.137 1399.081,2577.006C1399.081,2562.649 1400.913,2550.323 1404.577,2540.029C1408.241,2529.734 1413.409,2521.811 1420.083,2516.257C1426.757,2510.704 1434.739,2507.927 1444.03,2507.927ZM1444.03,2542.873C1438.795,2542.873 1434.477,2545.853 1431.075,2551.813C1427.673,2557.772 1425.972,2566.035 1425.972,2576.6C1425.972,2587.165 1427.673,2595.495 1431.075,2601.59C1434.477,2607.686 1438.795,2610.733 1444.03,2610.733C1449.264,2610.733 1453.549,2607.686 1456.886,2601.59C1460.223,2595.495 1461.892,2587.165 1461.892,2576.6C1461.892,2566.035 1460.223,2557.772 1456.886,2551.813C1453.549,2545.853 1449.264,2542.873 1444.03,2542.873Z" style="fill-rule:nonzero;"/>
        </g>
        <g transform="matrix(1.875198,0,0,0.905799,-435.453025,-886.587315)">
            <path d="M1494.278,2463.635L1497.419,2503.457C1496.895,2503.457 1496.339,2503.389 1495.75,2503.254C1495.162,2503.119 1494.54,2503.051 1493.886,2503.051C1487.997,2503.051 1483.515,2505.828 1480.44,2511.381C1477.365,2516.934 1475.828,2524.587 1475.828,2534.34L1464.836,2524.994C1464.836,2514.158 1465.883,2504.067 1467.976,2494.721C1470.07,2485.375 1473.178,2477.857 1477.3,2472.168C1481.422,2466.479 1486.362,2463.635 1492.119,2463.635L1494.278,2463.635ZM1462.088,2676.968C1472.687,2676.968 1480.866,2681.709 1486.623,2691.19C1492.381,2700.672 1495.26,2713.946 1495.26,2731.013C1495.26,2746.454 1493.101,2759.525 1488.782,2770.225C1484.464,2780.926 1478.412,2788.985 1470.626,2794.403C1462.84,2799.821 1453.844,2802.53 1443.637,2802.53C1426.757,2802.53 1414.424,2797.654 1406.638,2787.902C1398.852,2778.149 1394.959,2765.417 1394.959,2749.705C1394.959,2738.598 1397.02,2729.252 1401.142,2721.667C1405.264,2714.081 1412.101,2709.883 1421.653,2709.07L1420.672,2715.571C1413.867,2713.133 1408.666,2708.46 1405.067,2701.552C1401.469,2694.644 1399.67,2685.095 1399.67,2672.905C1399.67,2660.443 1401.992,2650.217 1406.638,2642.225C1411.283,2634.234 1417.597,2629.561 1425.579,2628.206L1437.356,2639.584L1434.608,2639.584C1428.981,2640.397 1425.023,2642.767 1422.733,2646.695C1420.443,2650.623 1419.298,2655.025 1419.298,2659.902C1419.298,2665.59 1420.378,2669.857 1422.537,2672.702C1424.696,2675.546 1427.804,2676.968 1431.86,2676.968L1462.088,2676.968ZM1443.833,2764.333C1450.638,2764.333 1456.232,2763.114 1460.616,2760.676C1464.999,2758.238 1468.271,2755.123 1470.43,2751.33C1472.589,2747.538 1473.669,2743.339 1473.669,2738.733C1473.669,2733.586 1472.687,2729.455 1470.724,2726.34C1468.761,2723.224 1465.228,2721.667 1460.125,2721.667L1426.953,2721.667C1423.813,2721.667 1421.228,2723.292 1419.2,2726.543C1417.172,2729.794 1416.157,2734.263 1416.157,2739.952C1416.157,2747.538 1418.611,2753.497 1423.518,2757.832C1428.425,2762.166 1435.197,2764.333 1443.833,2764.333ZM1444.03,2507.927C1453.19,2507.927 1461.139,2510.704 1467.878,2516.257C1474.617,2521.811 1479.786,2529.734 1483.385,2540.029C1486.983,2550.323 1488.782,2562.649 1488.782,2577.006C1488.782,2591.093 1486.983,2603.284 1483.385,2613.578C1479.786,2623.872 1474.617,2631.796 1467.878,2637.349C1461.139,2642.903 1453.19,2645.679 1444.03,2645.679C1429.505,2645.679 1418.382,2639.516 1410.662,2627.19C1402.941,2614.865 1399.081,2598.137 1399.081,2577.006C1399.081,2562.649 1400.913,2550.323 1404.577,2540.029C1408.241,2529.734 1413.409,2521.811 1420.083,2516.257C1426.757,2510.704 1434.739,2507.927 1444.03,2507.927ZM1444.03,2542.873C1438.795,2542.873 1434.477,2545.853 1431.075,2551.813C1427.673,2557.772 1425.972,2566.035 1425.972,2576.6C1425.972,2587.165 1427.673,2595.495 1431.075,2601.59C1434.477,2607.686 1438.795,2610.733 1444.03,2610.733C1449.264,2610.733 1453.549,2607.686 1456.886,2601.59C1460.223,2595.495 1461.892,2587.165 1461.892,2576.6C1461.892,2566.035 1460.223,2557.772 1456.886,2551.813C1453.549,2545.853 1449.264,2542.873 1444.03,2542.873Z" style="fill-rule:nonzero;"/>
        </g>
    </g>
</svg>
