<?xml version="1.0" standalone="no"?>
<!DOCTYPE svg PUBLIC "-//W3C//DTD SVG 1.1//EN" "http://www.w3.org/Graphics/SVG/1.1/DTD/svg11.dtd" >
<svg xmlns="http://www.w3.org/2000/svg" xmlns:xlink="http://www.w3.org/1999/xlink" version="1.1">
<metadata></metadata>
<defs>
<font id="archivoregular" horiz-adv-x="1280" >
<font-face units-per-em="2048" ascent="1638" descent="-410" />
<missing-glyph horiz-adv-x="428" />
<glyph unicode="&#xfb01;" horiz-adv-x="1036" d="M25 926v151h159v172q0 61 19.5 118.5t70 93.5t142.5 36q88 0 155 -22v-129h-108q-98 0 -98 -99v-170h206v-151h-206v-926h-181v926h-159zM715 0v1077h180v-1077h-180zM715 1280v201h180v-201h-180z" />
<glyph unicode="&#xfb02;" horiz-adv-x="1036" d="M25 926v151h159v172q0 61 19.5 118.5t70 93.5t142.5 36q88 0 155 -22v-129h-108q-98 0 -98 -99v-170h206v-151h-206v-926h-181v926h-159zM715 0v1481h180v-1481h-180z" />
<glyph horiz-adv-x="0" />
<glyph horiz-adv-x="682" />
<glyph unicode="&#xd;" horiz-adv-x="1228" />
<glyph unicode=" "  horiz-adv-x="428" />
<glyph unicode="&#x09;" horiz-adv-x="428" />
<glyph unicode="&#xa0;" horiz-adv-x="428" />
<glyph unicode="!" horiz-adv-x="559" d="M172 1405h215l-49 -1034h-117zM180 0v215h201v-215h-201z" />
<glyph unicode="&#x22;" horiz-adv-x="765" d="M115 1104v301h190v-301l-35 -264h-127zM451 1104v301h192v-301l-37 -264h-127z" />
<glyph unicode="#" horiz-adv-x="1191" d="M49 367v155h199l69 318h-174v155h209l97 435h161l-96 -435h301l96 435h164l-98 -435h164v-155h-195l-72 -318h175v-155h-207l-86 -392h-162l86 392h-303l-84 -392h-164l86 392h-166zM410 522h303l69 318h-301z" />
<glyph unicode="$" horiz-adv-x="1044" d="M72 465q0 8 1 17.5t1 15.5h178q0 -8 -1 -13.5t-1 -11.5q2 -96 65.5 -138t161.5 -48v360l-8 4q-88 25 -172 56.5t-138.5 91t-54.5 166.5q0 133 100.5 209.5t272.5 87.5v219h103v-219q180 -12 268 -95.5t88 -195.5q0 -23 -2 -39h-176v22q0 53 -38 100.5t-140 59.5v-319 q68 -18 136 -40t123.5 -55.5t89.5 -88t34 -140.5q0 -158 -107.5 -238.5t-275.5 -91.5v-241h-103v239q-199 8 -302 95.5t-103 230.5zM287 975q0 -68 55 -96.5t135 -53.5v291q-96 -6 -143 -44t-47 -97zM580 287q84 10 141 48.5t57 110.5q0 78 -57 114t-141 61v-334z" />
<glyph unicode="%" horiz-adv-x="1945" d="M188 1059q0 143 37 223t106.5 114t168.5 34q96 0 165.5 -34t106.5 -114t37 -223q0 -141 -37 -222t-106.5 -114t-165.5 -33q-98 0 -168 34t-107 114t-37 221zM344 1049q0 -113 32 -175.5t124 -62.5t122.5 62.5t30.5 175.5v20q0 115 -30.5 177.5t-122.5 62.5t-124 -62.5 t-32 -177.5v-20zM387 0l1014 1405h164l-1016 -1405h-162zM1141 344q0 143 36.5 223t106.5 114t166 34q98 0 167 -34t105.5 -114t36.5 -223q0 -141 -36.5 -222t-105.5 -114t-167 -33q-96 0 -166 34t-106.5 114t-36.5 221zM1296 336q0 -113 32 -176.5t122 -63.5q94 0 124 63.5 t30 176.5v18q0 115 -30 177.5t-124 62.5q-90 0 -122 -62.5t-32 -177.5v-18z" />
<glyph unicode="&#x26;" horiz-adv-x="1417" d="M100 377q0 139 73 225t177 119v8q-92 45 -154.5 118t-62.5 197q0 188 142.5 287t375.5 99q150 0 266.5 -47.5t182 -134.5t65.5 -204v-34h-180v22q-2 127 -97 185.5t-241 58.5q-88 0 -162.5 -23.5t-121 -78t-46.5 -140.5q0 -84 41 -138t107.5 -81t144.5 -27h127v-149h-123 q-82 0 -156.5 -21.5t-121.5 -75t-47 -153.5q0 -137 97 -198.5t259 -61.5q340 0 340 262v397h354v-151h-174v-240q0 -203 -135 -312.5t-399 -109.5q-156 0 -275.5 48.5t-187.5 138.5t-68 215z" />
<glyph unicode="'" horiz-adv-x="428" d="M115 1104v301h190v-301l-35 -264h-127z" />
<glyph unicode="(" horiz-adv-x="727" d="M147 594q0 250 93.5 487.5t267.5 425.5h117q-84 -125 -151.5 -274.5t-107.5 -312t-40 -326.5t40 -328t107.5 -313.5t151.5 -274.5h-117q-174 190 -267.5 427t-93.5 489z" />
<glyph unicode=")" horiz-adv-x="727" d="M102 -324q84 125 152 274.5t107.5 312.5t39.5 327t-39.5 327.5t-107.5 313t-152 274.5h117q174 -190 267.5 -426.5t93.5 -488.5q0 -250 -93.5 -487.5t-267.5 -426.5h-117z" />
<glyph unicode="*" horiz-adv-x="833" d="M84 924l240 118l-240 123l70 119l217 -162l-23 285h137l-22 -285l217 162l70 -119l-242 -123l242 -118l-70 -121l-217 160l22 -281h-137l23 281l-217 -160z" />
<glyph unicode="+" d="M156 444v156h407v447h154v-447h405v-156h-405v-444h-154v444h-407z" />
<glyph unicode="," horiz-adv-x="567" d="M162 -217q59 14 86.5 73.5t27.5 143.5h-94v215h199v-192q0 -119 -34 -185.5t-85 -97.5t-100 -41v84z" />
<glyph unicode="-" horiz-adv-x="681" d="M82 463v182h518v-182h-518z" />
<glyph unicode="." horiz-adv-x="567" d="M182 0v215h201v-215h-201z" />
<glyph unicode="/" horiz-adv-x="602" d="M0 -100l457 1605h145l-457 -1605h-145z" />
<glyph unicode="0" horiz-adv-x="1173" d="M100 702q0 283 58.5 442t167 222.5t262.5 63.5q152 0 260 -63.5t166.5 -222.5t58.5 -442t-58.5 -441.5t-166.5 -222t-260 -63.5q-154 0 -262.5 63.5t-167 222.5t-58.5 441zM289 657q0 -264 61.5 -397t237.5 -133t236.5 132t60.5 394v95q0 264 -60.5 397t-236.5 133 t-237.5 -133t-61.5 -395v-93z" />
<glyph unicode="1" horiz-adv-x="1067" d="M135 1126v115q115 8 238 44t219 124h82v-1255h334v-154h-871v154h355v972h-357z" />
<glyph unicode="2" horiz-adv-x="1161" d="M102 0v59q0 115 58.5 205t148.5 165t191 146q98 70 184 139.5t137 149.5t51 183q0 94 -66.5 161.5t-203.5 67.5q-109 0 -174.5 -37t-95 -98.5t-29.5 -134.5v-84h-178q-2 10 -4 31.5t-2 50.5q0 152 67.5 244.5t180 137t243.5 44.5q154 0 253.5 -55.5t147.5 -144.5t48 -194 q0 -129 -58.5 -229t-160 -185t-226.5 -171q-66 -43 -129 -92.5t-109 -97.5t-57 -93h748v-168h-965z" />
<glyph unicode="3" horiz-adv-x="1173" d="M86 387v27h182v-27q0 -127 81 -193.5t224 -66.5t231.5 62.5t88.5 199.5q0 98 -47 152.5t-122 76t-159 21.5h-147v152h153q76 0 142.5 25.5t106.5 80.5t40 145q0 121 -79 178.5t-189 57.5q-123 0 -206 -63.5t-83 -186.5v-27h-184v37q0 117 59.5 205t166 137.5t243.5 49.5 q135 0 238.5 -43.5t163 -127t59.5 -206.5q0 -135 -72 -210t-162 -114v-8q113 -33 188.5 -119t75.5 -225q0 -125 -63.5 -215t-174 -138.5t-251.5 -48.5q-248 0 -376 111t-128 301z" />
<glyph unicode="4" horiz-adv-x="1136" d="M57 344v152q129 221 224.5 448t152.5 486h193q-33 -141 -86.5 -288t-112.5 -279t-112.5 -229t-84.5 -138h480v446q27 66 51 142.5t39 136.5h90v-725h186v-152h-186v-344h-180v344h-654z" />
<glyph unicode="5" horiz-adv-x="1169" d="M102 436h183q0 -143 89 -226t220 -83t215 81t84 251q0 152 -78 226.5t-205 74.5q-94 0 -171 -42t-117 -118l-170 27l59 778h797v-168h-639l-33 -438q49 45 125 78.5t186 33.5q119 0 218.5 -47t156.5 -146.5t57 -252.5q0 -231 -130 -360.5t-355 -129.5q-147 0 -258 55.5 t-172.5 159t-61.5 246.5z" />
<glyph unicode="6" horiz-adv-x="1173" d="M100 662q0 287 60.5 454.5t174.5 240.5t275 73q152 0 245 -56.5t136 -155t43 -223.5h-184q0 283 -250 283q-125 0 -192.5 -65.5t-93 -187.5t-27.5 -292q43 70 139 121t217 51q152 0 249 -60.5t145 -165t48 -233.5q0 -143 -61 -248.5t-168 -164t-242 -58.5 q-160 0 -275.5 62.5t-177 212t-61.5 412.5zM305 438q0 -129 72.5 -220t224.5 -91q100 0 166 43t97.5 116.5t31.5 162.5q0 127 -69.5 217t-221.5 90t-226.5 -92.5t-74.5 -225.5z" />
<glyph unicode="7" horiz-adv-x="1132" d="M80 1237v168h989v-113q-96 -111 -196.5 -250t-185.5 -295.5t-138 -321.5t-53 -329v-96h-199q0 193 49 369t128 332.5t173 291.5t184 244h-751z" />
<glyph unicode="8" horiz-adv-x="1175" d="M96 383q0 115 57.5 203t180.5 135q-98 51 -148.5 136t-50.5 185q0 109 51.5 196t151.5 139.5t250 52.5t250 -52.5t151 -139.5t51 -196q0 -100 -51 -185t-149 -136q123 -47 180 -135t57 -203q0 -113 -50 -205t-157.5 -147.5t-281.5 -55.5t-282.5 55.5t-159 147.5 t-50.5 205zM285 385q0 -121 76.5 -190.5t226.5 -69.5t225.5 69.5t75.5 190.5q0 119 -76 188.5t-225 69.5q-150 0 -226.5 -69.5t-76.5 -188.5zM319 1038q0 -117 72 -181t197 -64t196.5 64.5t71.5 180.5q0 115 -71.5 178.5t-196.5 63.5q-127 0 -198 -63.5t-71 -178.5z" />
<glyph unicode="9" horiz-adv-x="1173" d="M88 958q0 143 61.5 249t168 164.5t239.5 58.5q162 0 277.5 -62.5t177 -212t61.5 -412.5q0 -287 -60.5 -454.5t-174 -240.5t-275.5 -73q-150 0 -244 56.5t-137 155t-43 223.5h185q0 -283 249 -283q125 0 191.5 65.5t93.5 187.5t29 292q-43 -70 -138.5 -121t-216.5 -51 q-152 0 -250 60.5t-146 164.5t-48 233zM276 956q0 -127 69.5 -217t223.5 -90q150 0 224.5 92.5t74.5 225.5q0 129 -72.5 220t-224.5 91q-100 0 -165.5 -43t-97.5 -117t-32 -162z" />
<glyph unicode=":" horiz-adv-x="606" d="M203 0v215h200v-215h-200zM203 862v215h200v-215h-200z" />
<glyph unicode=";" horiz-adv-x="606" d="M184 -217q59 14 87 73.5t28 143.5h-94v215h201v-192q0 -119 -35 -185.5t-85.5 -97.5t-101.5 -41v84zM205 862v215h201v-215h-201z" />
<glyph unicode="&#x3c;" d="M133 424v194l971 414v-172l-821 -340l821 -338v-172z" />
<glyph unicode="=" d="M156 227v156h968v-156h-968zM156 659v156h968v-156h-968z" />
<glyph unicode="&#x3e;" d="M176 10v172l821 338l-821 340v172l971 -414v-194z" />
<glyph unicode="?" horiz-adv-x="1183" d="M121 1016q0 57 22.5 127.5t76.5 136.5t147.5 108t230.5 42q125 0 209 -36t133 -93.5t70.5 -120t21.5 -115.5q0 -119 -37 -192.5t-92 -122t-109.5 -87t-92 -86t-37.5 -120.5v-95h-172v115q0 94 34.5 153.5t87 102.5t103.5 83t86 93.5t35 134.5q0 27 -7.5 64t-33 74 t-76.5 61.5t-135 24.5q-94 0 -149.5 -30t-83 -75t-37 -88t-9.5 -71v-28.5t2 -29.5h-182q-2 8 -4 25.5t-2 44.5zM477 0v215h201v-215h-201z" />
<glyph unicode="@" horiz-adv-x="2058" d="M104 537q0 244 76 414.5t207 276t302 154t362 48.5q195 0 359.5 -44.5t286.5 -137.5t188.5 -239.5t66.5 -351.5q0 -174 -44 -291.5t-115 -187t-150.5 -101.5t-151.5 -32q-84 0 -130 22.5t-66.5 56.5t-22.5 69h-12q-53 -72 -140.5 -111t-199.5 -39q-72 0 -142.5 23.5 t-119 82t-48.5 164.5q0 135 84 207t231.5 99.5t334.5 27.5v111q0 80 -45.5 128t-178.5 48q-127 0 -173 -46t-46 -106v-28h-160q0 10 -1 19t-1 22q0 135 108.5 203.5t287.5 68.5q182 0 277 -77t95 -214v-512q0 -47 21.5 -67.5t73.5 -20.5q72 0 141.5 45t115.5 150.5t46 287.5 q0 229 -98.5 373t-272.5 211.5t-401 67.5q-250 0 -432.5 -85t-281.5 -257t-99 -434q0 -365 180 -547.5t559 -182.5q53 0 126 8.5t140.5 22.5t108.5 33v-127q-47 -16 -117 -28.5t-139.5 -19.5t-118.5 -7q-268 0 -463 89t-301.5 277.5t-106.5 483.5zM780 326q0 -76 49.5 -113 t131.5 -37t149.5 34t108.5 93t41 141v78q-227 0 -353.5 -40t-126.5 -156z" />
<glyph unicode="A" horiz-adv-x="1396" d="M14 0l555 1405h256l557 -1405h-211l-137 348h-684l-135 -348h-201zM414 514h555l-170 440q-8 25 -26.5 74t-38 105.5t-36.5 103.5h-12q-14 -41 -32.5 -94t-37 -103.5t-30.5 -85.5z" />
<glyph unicode="B" horiz-adv-x="1429" d="M176 0v1405h725q180 0 286.5 -92t106.5 -248q0 -121 -63.5 -208t-161.5 -120v-8q111 -25 187.5 -109.5t76.5 -236.5q0 -137 -56 -221t-154.5 -123t-221.5 -39h-725zM371 168h528q102 0 169 54t67 181q0 233 -252 234h-512v-469zM371 803h493q102 0 167 60.5t65 158.5 q0 111 -59.5 163t-157.5 52h-508v-434z" />
<glyph unicode="C" horiz-adv-x="1490" d="M104 702q0 365 177.5 546.5t496.5 181.5q180 0 319.5 -58.5t218.5 -176.5t79 -296h-197q0 182 -114.5 272.5t-305.5 90.5q-223 0 -347 -130.5t-124 -412.5v-43q0 -281 123 -407t348 -126q195 0 310.5 89.5t115.5 273.5h191q0 -182 -80 -299t-220.5 -174.5t-318.5 -57.5 q-324 0 -498 178.5t-174 548.5z" />
<glyph unicode="D" horiz-adv-x="1503" d="M176 0v1405h524q330 0 514.5 -168t184.5 -535q0 -365 -184.5 -533.5t-514.5 -168.5h-524zM371 168h325q233 0 366.5 120t133.5 392v41q0 276 -133 396t-367 120h-325v-1069z" />
<glyph unicode="E" horiz-adv-x="1386" d="M176 0v1405h1081v-168h-886v-434h796v-168h-796v-467h899v-168h-1094z" />
<glyph unicode="F" horiz-adv-x="1253" d="M176 0v1405h995v-168h-800v-451h729v-165h-729v-621h-195z" />
<glyph unicode="G" horiz-adv-x="1630" d="M115 702q0 362 183 545t529 183q188 0 333 -55.5t225.5 -167t80.5 -281.5h-198q0 121 -57.5 194.5t-157 107.5t-222.5 34q-246 0 -381 -128t-135 -411v-43q0 -287 129 -412t365 -125t349.5 100.5t113.5 305.5v24h-496v166h692v-739h-147l-21 178q-82 -109 -209.5 -156 t-281.5 -47q-340 0 -517 178.5t-177 548.5z" />
<glyph unicode="H" horiz-adv-x="1507" d="M176 0v1405h195v-602h764v602h196v-1405h-196v633h-764v-633h-195z" />
<glyph unicode="I" horiz-adv-x="546" d="M176 0v1405h195v-1405h-195z" />
<glyph unicode="J" horiz-adv-x="1144" d="M72 381v61h194v-71q0 -111 65.5 -169.5t188.5 -58.5q125 0 191.5 80t66.5 238v944h195v-934q0 -250 -119 -373t-334 -123q-213 0 -330.5 102.5t-117.5 303.5z" />
<glyph unicode="K" horiz-adv-x="1355" d="M176 0v1405h195v-743l714 743h242l-534 -561l553 -844h-232l-457 705l-286 -271v-434h-195z" />
<glyph unicode="L" horiz-adv-x="1097" d="M176 0v1405h195v-1235h698v-170h-893z" />
<glyph unicode="M" horiz-adv-x="1734" d="M176 0v1405h301l320 -911q18 -57 37.5 -123t29.5 -109h15q10 43 27.5 110.5t33.5 121.5l320 911h299v-1405h-195v823q0 63 1 138t3 137.5t4 89.5h-16q-8 -27 -21.5 -75t-29 -100t-27.5 -93l-330 -920h-168l-329 920q-18 53 -40 127.5t-38 140.5h-15q2 -47 3 -112.5 t2.5 -133.5t1.5 -119v-823h-189z" />
<glyph unicode="N" horiz-adv-x="1507" d="M176 0v1405h189l682 -926q16 -20 42.5 -60t43.5 -67h8v1053h190v-1405h-178l-690 942q-14 23 -43 62.5t-45 66.5h-10v-1071h-189z" />
<glyph unicode="O" horiz-adv-x="1613" d="M104 702q0 367 187.5 547.5t515.5 180.5t515 -180.5t187 -547.5t-187 -547t-515 -180t-515.5 180.5t-187.5 546.5zM307 680q0 -281 134.5 -409t365.5 -128t365.5 128t134.5 409v43q0 281 -134.5 410t-365.5 129t-365.5 -129t-134.5 -410v-43z" />
<glyph unicode="P" horiz-adv-x="1361" d="M176 0v1405h694q217 0 326 -119t109 -309q0 -131 -53.5 -229.5t-152 -153.5t-231.5 -55h-497v-539h-195zM371 707h485q115 0 183.5 71.5t68.5 196.5q0 123 -63.5 192.5t-188.5 69.5h-485v-530z" />
<glyph unicode="Q" horiz-adv-x="1613" d="M104 702q0 367 187.5 547.5t515.5 180.5t515 -180.5t187 -547.5q0 -268 -102 -436t-287 -239l301 -293h-256l-252 248q-47 -6 -106 -7q-328 0 -515.5 180.5t-187.5 546.5zM307 680q0 -281 134.5 -409t365.5 -128t365.5 128t134.5 409v43q0 281 -134.5 410t-365.5 129 t-365.5 -129t-134.5 -410v-43z" />
<glyph unicode="R" horiz-adv-x="1488" d="M176 0v1405h739q215 0 321.5 -114.5t106.5 -297.5q0 -145 -66.5 -249.5t-178.5 -149.5l295 -594h-213l-275 559h-534v-559h-195zM371 725h526q117 0 183.5 71.5t66.5 196.5q0 115 -63.5 179.5t-186.5 64.5h-526v-512z" />
<glyph unicode="S" horiz-adv-x="1378" d="M106 397q0 10 1.5 20.5t1.5 20.5h196q0 -8 -1 -20t-1 -23q0 -125 108.5 -188.5t274.5 -63.5q63 0 130 9.5t124 35t94 69.5t37 112q0 78 -50 128t-133 81.5t-182.5 56t-198.5 53.5t-182 73t-133.5 114.5t-50.5 179.5q0 176 143.5 275.5t413.5 99.5q147 0 267 -41 t191 -129.5t71 -225.5v-24h-193v30q0 102 -93 162t-236 60q-186 0 -276.5 -53.5t-90.5 -137.5q0 -74 51 -119t134 -74.5t181.5 -54t197.5 -54.5t182 -75t133.5 -116.5t50.5 -180.5q0 -150 -74 -243t-204 -136t-298 -43q-154 0 -287 41t-216 134.5t-83 246.5z" />
<glyph unicode="T" horiz-adv-x="1241" d="M39 1235v170h1161v-170h-485v-1235h-195v1235h-481z" />
<glyph unicode="U" horiz-adv-x="1497" d="M172 532v873h195v-893q0 -184 99 -276.5t279 -92.5t284 92.5t104 276.5v893h192v-873q0 -293 -154 -425t-426 -132q-270 0 -421.5 132.5t-151.5 424.5z" />
<glyph unicode="V" horiz-adv-x="1327" d="M20 1405h211l361 -995q16 -43 36.5 -101.5t35.5 -97.5h12q12 37 31.5 94t37.5 105l357 995h205l-527 -1405h-235z" />
<glyph unicode="W" horiz-adv-x="1892" d="M25 1405h208l250 -948q8 -35 24.5 -106.5t27.5 -125.5h14q10 55 23.5 126t21.5 106l233 948h252l234 -948q8 -35 23.5 -106.5t25.5 -125.5h14q12 51 27.5 122t26.5 110l251 948h185l-391 -1405h-234l-244 954q-10 45 -23 116t-22 122h-12q-8 -51 -21.5 -124t-23.5 -114 l-238 -954h-241z" />
<glyph unicode="X" horiz-adv-x="1392" d="M23 0l548 737l-497 668h239l383 -522h11l378 522h228l-492 -666l549 -739h-240l-434 592h-10l-432 -592h-231z" />
<glyph unicode="Y" horiz-adv-x="1341" d="M20 1405h224l428 -649h10l426 649h213l-551 -821v-584h-197v584z" />
<glyph unicode="Z" horiz-adv-x="1300" d="M66 0v100l852 1137h-799v168h1087v-100l-854 -1137h873v-168h-1159z" />
<glyph unicode="[" horiz-adv-x="606" d="M190 -330v1835h385v-133h-223v-1569h223v-133h-385z" />
<glyph unicode="\" horiz-adv-x="602" d="M0 1505h145l457 -1605h-145z" />
<glyph unicode="]" horiz-adv-x="606" d="M31 -197h223v1569h-223v133h385v-1835h-385v133z" />
<glyph unicode="^" d="M219 602l332 803h176l334 -803h-166l-258 639l-254 -639h-164z" />
<glyph unicode="_" horiz-adv-x="993" d="M0 -133h993v-137h-993v137z" />
<glyph unicode="`" horiz-adv-x="382" d="M0 1475l2 6h203l178 -271h-158z" />
<glyph unicode="a" horiz-adv-x="1116" d="M70 274q0 147 92 226.5t252.5 109t367.5 29.5v123q0 88 -48 140t-193 52q-141 0 -192.5 -50t-51.5 -116v-30h-174q-2 10 -2 20v25q0 147 119.5 223t312.5 76q203 0 306.5 -85t103.5 -237v-583q0 -39 17 -54.5t46 -15.5h80v-119q-29 -14 -64.5 -22.5t-78.5 -8.5 q-80 0 -118 47.5t-48 118.5h-15q-57 -78 -152 -123t-218 -45q-78 0 -157 26t-132 91.5t-53 181.5zM258 287q0 -82 55.5 -121t143.5 -39q86 0 160.5 36t119.5 100.5t45 150.5v90q-248 0 -386 -44t-138 -173z" />
<glyph unicode="b" horiz-adv-x="1161" d="M141 0v1481h181v-539h12q53 84 139 122t189 38q188 0 302.5 -135.5t114.5 -419.5q0 -301 -112.5 -436.5t-313.5 -135.5q-109 0 -194.5 44t-141.5 135h-14l-18 -154h-144zM322 522q0 -188 68 -288.5t220 -100.5q137 0 210 87t73 296v43q0 203 -69.5 294t-219.5 91 q-78 0 -142.5 -35t-102 -119.5t-37.5 -234.5v-33z" />
<glyph unicode="c" horiz-adv-x="1062" d="M76 539q0 563 481 563q221 0 325.5 -112.5t104.5 -311.5h-182q0 141 -58.5 207.5t-193.5 66.5t-213 -91t-78 -302v-43q0 -203 75 -297t218 -94q137 0 196.5 72.5t59.5 201.5h176q0 -121 -46 -217t-142 -151.5t-248 -55.5q-233 0 -354 138.5t-121 425.5z" />
<glyph unicode="d" horiz-adv-x="1161" d="M80 547q0 285 115.5 420t304.5 135q109 0 191.5 -38t135.5 -122h13v539h180v-1481h-146l-16 154h-14q-55 -90 -143.5 -134.5t-192.5 -44.5q-201 0 -314.5 135.5t-113.5 436.5zM268 516q0 -209 73 -296t210 -87q154 0 221.5 100.5t67.5 288.5v33q0 150 -39 234.5 t-103.5 119.5t-140.5 35q-150 0 -219.5 -91t-69.5 -294v-43z" />
<glyph unicode="e" horiz-adv-x="1122" d="M80 539q0 291 126 427t374 136q227 0 343.5 -132t116.5 -390v-86h-774q4 -197 81 -284t228 -87q137 0 210 68.5t75 175.5h176q-2 -174 -122 -283t-343 -109q-242 0 -366.5 136.5t-124.5 427.5zM270 629h584q0 180 -78 252.5t-203 72.5q-141 0 -217 -78.5t-86 -246.5z" />
<glyph unicode="f" horiz-adv-x="573" d="M25 926v151h159v172q0 61 19.5 118.5t70 93.5t142.5 36q88 0 155 -22v-129h-108q-98 0 -98 -99v-170h206v-151h-206v-926h-181v926h-159z" />
<glyph unicode="g" horiz-adv-x="1138" d="M37 -109q0 88 50 147.5t120 90.5q-51 25 -80 69t-29 97q0 72 52.5 121t128.5 65q-72 45 -111 116t-39 157q0 154 109.5 251t328.5 97q131 0 226 -39q72 33 107.5 84t43.5 104h178q-2 -94 -59 -164.5t-158 -89.5q102 -98 103 -243q0 -154 -108.5 -252.5t-326.5 -98.5h-167 q-55 0 -90 -21.5t-35 -68.5q0 -43 34.5 -67.5t90.5 -24.5h438q119 0 194.5 -80t75.5 -200q0 -88 -44 -159t-123 -113t-183 -42h-440q-78 0 -142.5 32t-104.5 91.5t-40 140.5zM219 -86q0 -68 45 -109t111 -41h387q72 0 121 44.5t49 105.5q0 70 -41 111t-103 41h-413 q-66 0 -111 -44.5t-45 -107.5zM309 754q0 -96 64.5 -155.5t195.5 -59.5q129 0 193.5 57t64.5 158q0 98 -64.5 155.5t-193.5 57.5q-131 0 -195.5 -57.5t-64.5 -155.5z" />
<glyph unicode="h" horiz-adv-x="1153" d="M141 0v1481h181v-539h14q121 160 342 160q154 0 249 -80t95 -279v-743h-180v719q0 135 -64.5 179t-165.5 44q-76 0 -142.5 -36t-107 -104.5t-40.5 -168.5v-633h-181z" />
<glyph unicode="i" horiz-adv-x="460" d="M141 0v1077h181v-1077h-181zM141 1280v201h181v-201h-181z" />
<glyph unicode="j" horiz-adv-x="456" d="M-47 -225h92q96 0 96 98v1204h181v-1208q0 -63 -20.5 -117.5t-70 -89.5t-137.5 -35q-35 0 -74.5 7.5t-66.5 15.5v125zM141 1280v201h181v-201h-181z" />
<glyph unicode="k" horiz-adv-x="1052" d="M141 0v1481h181v-926l456 522h213l-368 -418l389 -659h-207l-299 526l-184 -186v-340h-181z" />
<glyph unicode="l" horiz-adv-x="460" d="M141 0v1481h181v-1481h-181z" />
<glyph unicode="m" horiz-adv-x="1761" d="M141 0v1077h146l16 -162h14q61 98 145.5 142.5t192.5 44.5q102 0 179 -42t114 -145h13q59 96 145 141.5t194 45.5q96 0 171 -34t117 -110.5t42 -205.5v-752h-180v723q0 131 -59.5 175t-147.5 44q-72 0 -133 -37t-97 -106.5t-36 -165.5v-633h-180v723q0 131 -58.5 175 t-144.5 44q-74 0 -136.5 -37t-99 -106.5t-36.5 -165.5v-633h-181z" />
<glyph unicode="n" horiz-adv-x="1153" d="M141 0v1077h146l16 -162h14q63 98 154.5 142.5t206.5 44.5q154 0 249 -80t95 -279v-743h-180v719q0 135 -64.5 179t-165.5 44q-76 0 -142.5 -37t-107 -106.5t-40.5 -165.5v-633h-181z" />
<glyph unicode="o" horiz-adv-x="1167" d="M80 539q0 291 129 427t375 136t373.5 -136.5t127.5 -426.5q0 -291 -127.5 -427.5t-373.5 -136.5t-375 136.5t-129 427.5zM268 516q0 -203 79 -296t237 -93t236.5 93t78.5 296v45q0 201 -79 295t-236 94q-158 0 -237 -94t-79 -295v-45z" />
<glyph unicode="p" horiz-adv-x="1161" d="M141 -354v1431h144l18 -153h14q55 90 141.5 134t194.5 44q201 0 313.5 -135.5t112.5 -436.5q0 -285 -114.5 -420t-302.5 -135q-102 0 -188.5 37t-139.5 123h-12v-489h-181zM322 522q0 -150 37.5 -234.5t102 -119.5t142.5 -35q150 0 219.5 91t69.5 292v43q0 211 -72.5 298 t-210.5 87q-152 0 -220 -100.5t-68 -290.5v-31z" />
<glyph unicode="q" horiz-adv-x="1161" d="M80 530q0 301 113.5 436.5t314.5 135.5q109 0 194.5 -44t141.5 -134h14l16 153h146v-1431h-180v489h-13q-53 -86 -139 -123t-188 -37q-188 0 -304 135.5t-116 419.5zM268 516q0 -201 69.5 -292t219.5 -91q78 0 141.5 35t102.5 120t39 234v31q0 190 -69 290.5t-220 100.5 q-137 0 -210 -87t-73 -298v-43z" />
<glyph unicode="r" horiz-adv-x="679" d="M141 0v1077h146l16 -178h14q14 51 44 97t78 76t122 30q31 0 56.5 -5t37.5 -12v-165h-67q-139 0 -202.5 -91.5t-63.5 -228.5v-600h-181z" />
<glyph unicode="s" horiz-adv-x="1044" d="M72 301q0 10 1 18.5t1 16.5h178q0 -8 -1 -14.5t-1 -12.5q2 -109 81 -147.5t197 -38.5q102 0 176 40t74 122q0 66 -44 102.5t-115.5 57t-149.5 42.5q-88 25 -172 58t-138.5 91t-54.5 165q0 143 115 221t309 78q207 0 307.5 -86t100.5 -205q0 -25 -2 -41h-176v23 q0 41 -21.5 78.5t-74 61t-144.5 23.5q-117 0 -174 -37.5t-57 -103.5q0 -55 34.5 -84t93 -46t126.5 -40q72 -20 145.5 -41.5t137 -55.5t101.5 -89.5t38 -147.5q0 -115 -57.5 -188.5t-159 -109.5t-228.5 -36q-219 0 -332.5 88.5t-113.5 237.5z" />
<glyph unicode="t" horiz-adv-x="608" d="M35 926v151h143l33 301h143v-301h203v-151h-203v-697q0 -51 18.5 -76.5t69.5 -25.5h115v-119q-33 -14 -79 -23.5t-85 -9.5q-125 0 -172 68t-47 160v723h-139z" />
<glyph unicode="u" horiz-adv-x="1150" d="M131 334v743h180v-719q0 -135 63.5 -179t164.5 -44q78 0 144.5 37t107 106.5t40.5 165.5v633h181v-1077h-146l-16 162h-14q-63 -98 -154.5 -142.5t-206.5 -44.5q-154 0 -249 80t-95 279z" />
<glyph unicode="v" horiz-adv-x="1032" d="M27 1077h188l197 -538q14 -39 32.5 -96.5t37 -119t32.5 -108.5h10q14 45 32.5 105.5t38 119t34.5 99.5l194 538h183l-400 -1077h-180z" />
<glyph unicode="w" horiz-adv-x="1480" d="M23 1077h186l164 -592q18 -66 35.5 -140.5t25.5 -108.5h12q8 39 18.5 88t21 94t16.5 69l147 590h195l149 -590q12 -53 28.5 -126.5t27.5 -124.5h12q10 49 29.5 121.5t33.5 125.5l162 594h172l-323 -1077h-185l-139 557q-8 37 -20.5 90t-23.5 107.5t-19 95.5h-13 q-8 -45 -24.5 -127t-38.5 -166l-140 -557h-184z" />
<glyph unicode="x" horiz-adv-x="1050" d="M29 0l387 551l-369 526h217l262 -385h11l262 385h205l-369 -520l389 -557h-215l-283 416h-10l-283 -416h-204z" />
<glyph unicode="y" horiz-adv-x="1032" d="M27 1077h188l215 -555q14 -39 33.5 -95t38 -115.5t33.5 -104.5h12q12 43 28.5 101.5t35 114.5t30.5 97l182 557h183l-365 -1046q-43 -119 -93 -210t-125 -142.5t-190 -51.5q-49 0 -84.5 6.5t-48.5 10.5v131h90q74 0 142.5 47t111.5 178z" />
<glyph unicode="z" horiz-adv-x="1019" d="M63 0v96l601 830h-558v151h816v-94l-603 -831h635v-152h-891z" />
<glyph unicode="{" horiz-adv-x="722" d="M92 502v174q61 0 117.5 26.5t56.5 92.5v442q0 109 48 167t127 79.5t173 21.5v-114q-35 0 -76.5 -10.5t-71.5 -38t-32 -78.5l-18 -449q-4 -102 -47 -159.5t-160 -57.5v-18q117 0 160 -57.5t47 -160.5l18 -446q2 -51 31 -78.5t71 -38t78 -10.5v-115q-94 0 -173 21.5 t-127 80t-48 167.5v438q0 68 -56 94.5t-118 26.5z" />
<glyph unicode="|" horiz-adv-x="501" d="M176 -375v1856h150v-1856h-150z" />
<glyph unicode="}" horiz-adv-x="722" d="M106 -211q37 0 79 10.5t72 38t32 78.5l18 449q4 102 47 159.5t160 57.5v18q-117 0 -160 57.5t-47 159.5l-18 447q-2 51 -32 78.5t-71 38t-80 10.5v114q94 0 174 -21.5t128.5 -79.5t48.5 -167v-438q0 -68 56 -94.5t118 -26.5v-174q-61 0 -117.5 -26.5t-56.5 -92.5v-442 q0 -109 -48.5 -167.5t-128 -80t-174.5 -21.5v115z" />
<glyph unicode="~" d="M125 440v176q33 47 110.5 98.5t186.5 51.5q78 0 147.5 -32t138 -62.5t148.5 -30.5q63 0 121.5 23.5t103.5 58.5t72 68v-179q-31 -47 -108.5 -97t-188.5 -50q-78 0 -146.5 30.5t-138 61.5t-149.5 31q-63 0 -120.5 -23.5t-103.5 -58.5t-73 -66z" />
<glyph unicode="&#xa1;" horiz-adv-x="559" d="M172 -330l49 1037h117l49 -1037h-215zM180 862v213h201v-213h-201z" />
<glyph unicode="&#xa2;" horiz-adv-x="1161" d="M109 702q0 528 423 562v217h103v-217q197 -12 291 -123t94 -299h-182q0 127 -47.5 193.5t-155.5 76.5v-821q111 12 161 82.5t50 187.5h174q0 -170 -93 -288.5t-292 -133.5v-239h-103v239q-209 14 -316 152.5t-107 410.5zM295 680q0 -182 60.5 -276.5t176.5 -110.5v819 q-111 -16 -174 -108.5t-63 -280.5v-43z" />
<glyph unicode="&#xa3;" horiz-adv-x="1165" d="M55 618v156h183v270q0 190 114.5 288t298.5 98q180 0 294 -94.5t114 -286.5v-31h-180v35q0 117 -63.5 172t-164.5 55q-102 0 -167.5 -55.5t-65.5 -165.5v-285h338v-156h-338l-19 -460h660v-158h-975v158h154v460h-183z" />
<glyph unicode="&#xa4;" horiz-adv-x="1165" d="M68 1139l94 92l114 -115q61 53 141.5 81t162.5 28q84 0 163.5 -28t141.5 -81l114 115l93 -92l-113 -111q55 -61 80.5 -143t25.5 -168t-25.5 -167t-80.5 -144l113 -113l-91 -90l-112 116q-63 -55 -143 -82.5t-166 -27.5q-84 0 -164 27.5t-144 82.5l-112 -116l-90 90 l110 113q-53 63 -78.5 144t-25.5 167t25.5 168t78.5 143zM211 717q0 -102 50 -187.5t134.5 -137.5t184.5 -52q102 0 185 52t133 137t50 188q0 100 -50 185t-133 136.5t-185 51.5q-100 0 -184.5 -51.5t-134.5 -136.5t-50 -185z" />
<glyph unicode="&#xa5;" horiz-adv-x="1150" d="M20 1405h211l246 -444q20 -39 50 -94.5t51 -94.5h10q20 37 49 93.5t49 95.5l242 444h202l-299 -518q-20 -35 -48.5 -81t-47.5 -79h336v-129h-401v-143h401v-129h-401v-326h-187v326h-403v129h403v143h-403v129h340q-18 31 -47 76t-45 74z" />
<glyph unicode="&#xa6;" horiz-adv-x="501" d="M176 -375v762h150v-762h-150zM176 719v762h150v-762h-150z" />
<glyph unicode="&#xa7;" horiz-adv-x="1163" d="M102 559q0 92 52.5 164t138.5 119q-70 41 -116 104.5t-46 161.5q0 150 123 236t336 86q152 0 249 -41t145 -109t48 -147q0 -29 -2 -41h-188v22q0 39 -22.5 78t-79 63.5t-160.5 24.5q-127 0 -192.5 -48t-65.5 -128q0 -59 39.5 -99t106.5 -69t145.5 -54.5t157.5 -55 t144.5 -71.5t106.5 -104.5t41 -152.5q0 -94 -52.5 -166t-138.5 -117q70 -43 115 -105.5t45 -160.5q0 -150 -122 -236t-335 -86q-152 0 -249 41t-145 108.5t-48 147.5q0 29 2 41h189v-20q0 -41 22.5 -80t78.5 -64.5t161 -25.5q125 0 191.5 49t66.5 129q0 59 -40 99t-106.5 69 t-145.5 54.5t-158 55t-144.5 71.5t-106.5 104.5t-41 152.5zM287 594q0 -72 40 -120t106.5 -81t145 -58t158.5 -52q61 25 101.5 70.5t40.5 107.5q0 74 -41 121t-107.5 78.5t-146.5 57t-158 54.5q-61 -25 -100 -71t-39 -107z" />
<glyph unicode="&#xa8;" horiz-adv-x="573" d="M0 1288v189h182v-189h-182zM391 1288v189h182v-189h-182z" />
<glyph unicode="&#xa9;" horiz-adv-x="1540" d="M43 702q0 158 53.5 291t151.5 230.5t230 152t292 54.5q158 0 291 -54.5t230.5 -152t151.5 -230.5t54 -291t-54 -290.5t-151.5 -230t-230.5 -152t-291 -54.5q-160 0 -292 54.5t-230 152t-151.5 230.5t-53.5 290zM141 702q0 -182 81 -325.5t223.5 -225t324.5 -81.5 q180 0 322.5 81.5t223.5 225t81 325.5t-81 324.5t-223.5 224.5t-322.5 82q-182 0 -324.5 -82t-223.5 -224t-81 -325zM416 700q0 231 91 332t257 101q152 0 236.5 -78t84.5 -258h-122q0 129 -51.5 179t-147.5 50q-109 0 -167 -72.5t-58 -228.5v-49q0 -158 59 -229.5 t166 -71.5q94 0 149.5 52t55.5 175h116q0 -160 -84.5 -247t-236.5 -87q-166 0 -257 99.5t-91 332.5z" />
<glyph unicode="&#xaa;" horiz-adv-x="788" d="M59 877q0 100 59.5 153t162 72.5t233.5 19.5v84q0 51 -29.5 85t-119.5 34q-88 0 -119 -31.5t-31 -72.5v-23h-123q0 6 -1 14.5t-1 16.5q0 100 78 150.5t203 50.5q131 0 198.5 -56.5t67.5 -156.5v-388q0 -27 12.5 -37t28.5 -10h53v-84q-20 -6 -42.5 -11t-49.5 -5 q-55 0 -83 28.5t-34 75.5h-10q-37 -51 -95 -80.5t-136 -29.5q-51 0 -102.5 17.5t-85.5 61.5t-34 122zM188 883q0 -51 33 -77t86 -26q82 0 144.5 54.5t62.5 140.5v51q-154 2 -240 -28.5t-86 -114.5z" />
<glyph unicode="&#xab;" horiz-adv-x="1126" d="M127 668l322 409h145l-264 -409l264 -410h-145zM526 668l322 409h147l-266 -409l266 -410h-147z" />
<glyph unicode="&#xac;" d="M145 756v151h969v-501h-153v350h-816z" />
<glyph unicode="&#xad;" horiz-adv-x="681" d="M82 463v182h518v-182h-518z" />
<glyph unicode="&#xae;" horiz-adv-x="1540" d="M43 702q0 158 53.5 291t151.5 230.5t230 152t292 54.5q158 0 291 -54.5t230.5 -152t151.5 -230.5t54 -291t-54 -290.5t-151.5 -230t-230.5 -152t-291 -54.5q-160 0 -292 54.5t-230 152t-151.5 230.5t-53.5 290zM141 702q0 -182 81 -325.5t223.5 -225t324.5 -81.5 q180 0 322.5 81.5t223.5 225t81 325.5t-81 324.5t-223.5 224.5t-322.5 82q-182 0 -324.5 -82t-223.5 -224t-81 -325zM483 281v843h371q129 0 193.5 -68.5t64.5 -185.5q0 -84 -38 -147.5t-109 -91.5l178 -350h-133l-164 327h-240v-327h-123zM606 715h244q61 0 99 41t38 114 q0 147 -137 148h-244v-303z" />
<glyph unicode="&#xaf;" horiz-adv-x="614" d="M0 1300v134h614v-134h-614z" />
<glyph unicode="&#xb0;" horiz-adv-x="819" d="M133 1153q0 78 38 140.5t101.5 99.5t139.5 37q78 0 140 -37t99 -99.5t37 -140.5t-37 -140.5t-99 -99t-140 -36.5q-76 0 -139.5 36.5t-101.5 99t-38 140.5zM242 1153q0 -70 50 -119t120 -49t118 49t48 119q0 68 -48.5 118t-117.5 50q-70 0 -120 -50t-50 -118z" />
<glyph unicode="&#xb1;" d="M156 0v156h966v-156h-966zM156 705v155h407v447h154v-447h405v-155h-405v-445h-154v445h-407z" />
<glyph unicode="&#xb2;" horiz-adv-x="708" d="M92 901v47q0 61 30 107.5t78 83.5t97 71q72 49 129 100.5t57 116.5q0 41 -30.5 70t-92.5 29q-74 0 -104.5 -36t-30.5 -85v-49h-121q0 10 -3 25.5t-3 31.5q0 117 81 169t188 52q125 0 184 -62.5t59 -146.5q0 -72 -35.5 -125t-90 -95t-109.5 -79q-41 -29 -78 -55.5 t-53 -54.5h370v-115h-522z" />
<glyph unicode="&#xb3;" horiz-adv-x="708" d="M84 1100v20h125v-22q0 -55 37 -84t102 -29q66 0 106 26.5t40 88.5q0 63 -46.5 85.5t-103.5 22.5h-86v109h90q53 0 91 24.5t38 83.5q0 53 -34.5 78t-86.5 25q-55 0 -93 -27.5t-38 -81.5v-24h-127v28q0 94 74 152.5t182 58.5q111 0 181.5 -52t70.5 -152q0 -57 -29.5 -96.5 t-72.5 -61.5v-6q53 -20 86 -64.5t33 -109.5q0 -100 -76 -157.5t-191 -57.5q-133 0 -202.5 59t-69.5 164z" />
<glyph unicode="&#xb4;" horiz-adv-x="382" d="M0 1210l178 271h203l2 -6l-225 -265h-158z" />
<glyph unicode="&#xb5;" horiz-adv-x="1161" d="M141 -367v1444h181v-719q0 -135 63.5 -179t163.5 -44q76 0 143.5 37t108.5 106.5t41 165.5v633h180v-1077h-148l-16 162h-14q-57 -102 -140 -144.5t-184 -42.5q-63 0 -117.5 16.5t-91.5 51.5q4 -31 7.5 -72t3.5 -77v-261h-181z" />
<glyph unicode="&#xb6;" horiz-adv-x="1157" d="M104 956q0 152 64.5 251.5t172.5 148.5t241 49h487v-113h-129v-1640h-137v1640h-146v-1640h-137v862q-113 8 -207 62.5t-151.5 151.5t-57.5 228z" />
<glyph unicode="&#xb7;" horiz-adv-x="681" d="M240 621v219h204v-219h-204z" />
<glyph unicode="&#xb8;" horiz-adv-x="428" d="M0 -264h199q80 0 80 57q0 25 -17.5 37t-62.5 12h-105l33 181h121l-15 -103q80 0 137.5 -27.5t57.5 -99.5q0 -61 -37 -94t-92.5 -46t-112.5 -13q-45 0 -95 5t-91 11v80z" />
<glyph unicode="&#xb9;" horiz-adv-x="708" d="M121 901v115h182v440h-182v84q63 4 128.5 24.5t115.5 59.5h63v-608h166v-115h-473z" />
<glyph unicode="&#xba;" horiz-adv-x="776" d="M66 1053q0 195 83.5 286t241.5 91t240 -91.5t82 -285.5q0 -195 -84 -287t-242 -92q-156 0 -238.5 92t-82.5 287zM199 1038q0 -125 45 -190.5t145 -65.5q102 0 147.5 64.5t45.5 189.5v29q0 129 -46.5 192.5t-146.5 63.5t-145 -63.5t-45 -190.5v-29z" />
<glyph unicode="&#xbb;" horiz-adv-x="1126" d="M131 258l264 410l-264 409h145l324 -409l-324 -410h-145zM530 258l267 410l-267 409h148l321 -409l-321 -410h-148z" />
<glyph unicode="&#xbc;" horiz-adv-x="1730" d="M121 696v115h182v440h-182v84q63 4 128.5 24.5t115.5 59.5h63v-608h166v-115h-473zM242 -25l1118 1455h141l-1118 -1455h-141zM1034 162v96q63 106 110.5 223t78.5 250h135q-23 -90 -57.5 -182t-72.5 -167t-63 -112h203v183q12 35 25.5 73.5t21.5 77.5h76v-334h94v-108 h-94v-162h-123v162h-334z" />
<glyph unicode="&#xbd;" horiz-adv-x="1730" d="M121 696v115h182v440h-182v84q63 4 128.5 24.5t115.5 59.5h63v-608h166v-115h-473zM242 -25l1118 1455h141l-1118 -1455h-141zM1087 0v47q0 61 31 107.5t78 83t98 71.5q72 49 129.5 100.5t57.5 116.5q0 41 -31 70t-92 29q-76 0 -105.5 -36t-29.5 -85v-49h-121 q-2 10 -4 25.5t-2 31.5q0 117 79.5 169t186.5 52q125 0 184.5 -62.5t59.5 -146.5q0 -72 -35 -125t-89.5 -95t-109.5 -79q-43 -29 -79 -55.5t-52 -54.5h369v-115h-523z" />
<glyph unicode="&#xbe;" horiz-adv-x="1730" d="M84 895v20h125v-22q0 -55 37 -84t102 -29q66 0 106 27t40 88q0 63 -46.5 86t-103.5 23h-86v108h90q53 0 91 24.5t38 84.5q0 53 -34.5 77.5t-86.5 24.5q-55 0 -93 -27.5t-38 -81.5v-24h-127v29q0 94 74 152.5t182 58.5q111 0 181.5 -52.5t70.5 -152.5q0 -57 -29.5 -96 t-72.5 -62v-6q53 -20 86 -64.5t33 -109.5q0 -100 -76 -157.5t-191 -57.5q-133 0 -202.5 59.5t-69.5 163.5zM242 -25l1118 1455h141l-1118 -1455h-141zM1034 162v96q63 106 110.5 223t78.5 250h135q-23 -90 -57.5 -182t-72.5 -167t-63 -112h203v183q12 35 25.5 73.5 t21.5 77.5h76v-334h94v-108h-94v-162h-123v162h-334z" />
<glyph unicode="&#xbf;" horiz-adv-x="1183" d="M154 12q0 117 36.5 192t92 123t109.5 87t92 86t38 118v95h172v-115q0 -92 -34.5 -152.5t-86 -102.5t-103.5 -83t-87 -94t-35 -135q0 -25 8.5 -63t33 -74.5t75.5 -60t137 -23.5q92 0 147.5 29.5t83 73.5t37 88t9.5 71q0 18 -1 32.5t-1 24.5h182q2 -8 5 -27.5t3 -42.5 q0 -57 -23.5 -127.5t-78 -135t-146.5 -106.5t-231 -42q-125 0 -209 35.5t-133 92t-70.5 119t-21.5 117.5zM508 862v215h201v-215h-201z" />
<glyph unicode="&#xc0;" horiz-adv-x="1396" d="M14 0l555 1405h256l557 -1405h-211l-137 348h-684l-135 -348h-201zM408 1772l2 6h213l176 -271h-166zM414 514h555l-170 440q-8 25 -26.5 74t-38 105.5t-36.5 103.5h-12q-14 -41 -32.5 -94t-37 -103.5t-30.5 -85.5z" />
<glyph unicode="&#xc1;" horiz-adv-x="1396" d="M14 0l555 1405h256l557 -1405h-211l-137 348h-684l-135 -348h-201zM414 514h555l-170 440q-8 25 -26.5 74t-38 105.5t-36.5 103.5h-12q-14 -41 -32.5 -94t-37 -103.5t-30.5 -85.5zM612 1507l176 271h213l3 -6l-226 -265h-166z" />
<glyph unicode="&#xc2;" horiz-adv-x="1396" d="M14 0l555 1405h256l557 -1405h-211l-137 348h-684l-135 -348h-201zM389 1507l217 271h187l215 -271h-174l-136 168l-135 -168h-174zM414 514h555l-170 440q-8 25 -26.5 74t-38 105.5t-36.5 103.5h-12q-14 -41 -32.5 -94t-37 -103.5t-30.5 -85.5z" />
<glyph unicode="&#xc3;" horiz-adv-x="1396" d="M14 0l555 1405h256l557 -1405h-211l-137 348h-684l-135 -348h-201zM373 1571q2 84 43 143.5t133 59.5q53 0 102 -17.5t96.5 -35t92.5 -17.5q57 0 67 70h115q-2 -84 -45 -143.5t-133 -59.5q-51 0 -99.5 17.5t-95.5 35.5t-92 18q-61 0 -70 -71h-114zM414 514h555l-170 440 q-8 25 -26.5 74t-38 105.5t-36.5 103.5h-12q-14 -41 -32.5 -94t-37 -103.5t-30.5 -85.5z" />
<glyph unicode="&#xc4;" horiz-adv-x="1396" d="M14 0l555 1405h256l557 -1405h-211l-137 348h-684l-135 -348h-201zM412 1585v189h182v-189h-182zM414 514h555l-170 440q-8 25 -26.5 74t-38 105.5t-36.5 103.5h-12q-14 -41 -32.5 -94t-37 -103.5t-30.5 -85.5zM803 1585v189h182v-189h-182z" />
<glyph unicode="&#xc5;" horiz-adv-x="1396" d="M14 0l555 1405h256l557 -1405h-211l-137 348h-684l-135 -348h-201zM414 514h555l-170 440q-8 25 -26.5 74t-38 105.5t-36.5 103.5h-12q-14 -41 -32.5 -94t-37 -103.5t-30.5 -85.5zM498 1686q0 84 56 138t144 54t145.5 -54.5t57.5 -137.5q0 -82 -57.5 -136.5t-145.5 -54.5 t-144 54.5t-56 136.5zM600 1686q0 -43 27.5 -70t70.5 -27q45 0 73 26.5t28 70.5q0 41 -28 68.5t-73 27.5q-43 0 -70.5 -28t-27.5 -68z" />
<glyph unicode="&#xc6;" horiz-adv-x="2048" d="M-6 0l711 1405h1216v-168h-913l110 -434h713v-168h-668l119 -467h651v-168h-807l-90 354h-661l-176 -354h-205zM455 520h538l-139 557q-10 37 -19.5 75t-17.5 73h-12q-18 -35 -37.5 -73t-38.5 -75z" />
<glyph unicode="&#xc7;" horiz-adv-x="1490" d="M104 702q0 365 177.5 546.5t496.5 181.5q180 0 319.5 -58.5t218.5 -176.5t79 -296h-197q0 182 -114.5 272.5t-305.5 90.5q-223 0 -347 -130.5t-124 -412.5v-43q0 -281 123 -407t348 -126q195 0 310.5 89.5t115.5 273.5h191q0 -172 -72 -286t-199 -174t-290 -69l-9 -57 q80 0 136.5 -27.5t56.5 -99.5q0 -61 -36 -94t-91.5 -46t-112.5 -13q-47 0 -96 5t-90 11v80h196q82 0 82 57q0 25 -17 37t-65 12h-102l25 135q-293 16 -450 195.5t-157 529.5z" />
<glyph unicode="&#xc8;" horiz-adv-x="1386" d="M176 0v1405h1081v-168h-886v-434h796v-168h-796v-467h899v-168h-1094zM438 1772l2 6h211l178 -271h-165z" />
<glyph unicode="&#xc9;" horiz-adv-x="1386" d="M176 0v1405h1081v-168h-886v-434h796v-168h-796v-467h899v-168h-1094zM643 1507l176 271h213l2 -6l-227 -265h-164z" />
<glyph unicode="&#xca;" horiz-adv-x="1386" d="M176 0v1405h1081v-168h-886v-434h796v-168h-796v-467h899v-168h-1094zM420 1507l217 271h186l215 -271h-174l-135 168l-135 -168h-174z" />
<glyph unicode="&#xcb;" horiz-adv-x="1386" d="M176 0v1405h1081v-168h-886v-434h796v-168h-796v-467h899v-168h-1094zM442 1585v189h183v-189h-183zM834 1585v189h182v-189h-182z" />
<glyph unicode="&#xcc;" horiz-adv-x="546" d="M-16 1772l2 6h211l178 -271h-166zM176 0v1405h195v-1405h-195z" />
<glyph unicode="&#xcd;" horiz-adv-x="546" d="M176 0v1405h195v-1405h-195zM188 1507l177 271h213l2 -6l-228 -265h-164z" />
<glyph unicode="&#xce;" horiz-adv-x="546" d="M-35 1507l217 271h187l215 -271h-174l-136 168l-135 -168h-174zM176 0v1405h195v-1405h-195z" />
<glyph unicode="&#xcf;" horiz-adv-x="546" d="M-12 1585v189h182v-189h-182zM176 0v1405h195v-1405h-195zM379 1585v189h182v-189h-182z" />
<glyph unicode="&#xd0;" horiz-adv-x="1503" d="M0 635v156h176v614h524q330 0 514.5 -168t184.5 -535q0 -365 -184.5 -533.5t-514.5 -168.5h-524v635h-176zM371 168h325q233 0 366.5 120t133.5 392v41q0 276 -133 396t-367 120h-325v-446h397v-156h-397v-467z" />
<glyph unicode="&#xd1;" horiz-adv-x="1507" d="M176 0v1405h189l682 -926q16 -20 42.5 -60t43.5 -67h8v1053h190v-1405h-178l-690 942q-14 23 -43 62.5t-45 66.5h-10v-1071h-189zM432 1571q2 84 43 143.5t133 59.5q53 0 102.5 -17.5t96.5 -35t92 -17.5q57 0 68 70h114q-2 -84 -45 -143.5t-133 -59.5q-51 0 -99 17.5 t-95 35.5t-93 18q-61 0 -69 -71h-115z" />
<glyph unicode="&#xd2;" horiz-adv-x="1613" d="M104 702q0 367 187.5 547.5t515.5 180.5t515 -180.5t187 -547.5t-187 -547t-515 -180t-515.5 180.5t-187.5 546.5zM307 680q0 -281 134.5 -409t365.5 -128t365.5 128t134.5 409v43q0 281 -134.5 410t-365.5 129t-365.5 -129t-134.5 -410v-43zM514 1772l2 6h213l176 -271 h-166z" />
<glyph unicode="&#xd3;" horiz-adv-x="1613" d="M104 702q0 367 187.5 547.5t515.5 180.5t515 -180.5t187 -547.5t-187 -547t-515 -180t-515.5 180.5t-187.5 546.5zM307 680q0 -281 134.5 -409t365.5 -128t365.5 128t134.5 409v43q0 281 -134.5 410t-365.5 129t-365.5 -129t-134.5 -410v-43zM719 1507l176 271h213l2 -6 l-225 -265h-166z" />
<glyph unicode="&#xd4;" horiz-adv-x="1613" d="M104 702q0 367 187.5 547.5t515.5 180.5t515 -180.5t187 -547.5t-187 -547t-515 -180t-515.5 180.5t-187.5 546.5zM307 680q0 -281 134.5 -409t365.5 -128t365.5 128t134.5 409v43q0 281 -134.5 410t-365.5 129t-365.5 -129t-134.5 -410v-43zM496 1507l217 271h186 l215 -271h-174l-135 168l-133 -168h-176z" />
<glyph unicode="&#xd5;" horiz-adv-x="1613" d="M104 702q0 367 187.5 547.5t515.5 180.5t515 -180.5t187 -547.5t-187 -547t-515 -180t-515.5 180.5t-187.5 546.5zM307 680q0 -281 134.5 -409t365.5 -128t365.5 128t134.5 409v43q0 281 -134.5 410t-365.5 129t-365.5 -129t-134.5 -410v-43zM479 1571q2 84 44 143.5 t132 59.5q53 0 102.5 -17.5t96.5 -35t92 -17.5q57 0 68 70h114q-2 -84 -45 -143.5t-133 -59.5q-49 0 -98 17.5t-96 35.5t-92 18q-61 0 -70 -71h-115z" />
<glyph unicode="&#xd6;" horiz-adv-x="1613" d="M104 702q0 367 187.5 547.5t515.5 180.5t515 -180.5t187 -547.5t-187 -547t-515 -180t-515.5 180.5t-187.5 546.5zM307 680q0 -281 134.5 -409t365.5 -128t365.5 128t134.5 409v43q0 281 -134.5 410t-365.5 129t-365.5 -129t-134.5 -410v-43zM518 1585v189h182v-189h-182 zM909 1585v189h183v-189h-183z" />
<glyph unicode="&#xd7;" d="M215 207l315 315l-315 316l109 110l315 -315l317 315l111 -110l-317 -318l315 -311l-111 -111l-315 316l-313 -318z" />
<glyph unicode="&#xd8;" horiz-adv-x="1613" d="M104 702q0 367 187.5 547.5t515.5 180.5q236 0 395 -91l125 166h164l-182 -243q96 -90 148 -229.5t52 -330.5q0 -367 -187 -547t-515 -180q-238 0 -399 93l-125 -168h-166l186 245q-96 90 -147.5 229.5t-51.5 327.5zM307 680q0 -127 29 -221t82 -160l676 895 q-115 68 -287 68q-231 0 -365.5 -129t-134.5 -410v-43zM518 211q115 -68 289 -68q231 0 365.5 128t134.5 409v43q0 129 -29 225t-84 162z" />
<glyph unicode="&#xd9;" horiz-adv-x="1497" d="M172 532v873h195v-893q0 -184 99 -276.5t279 -92.5t284 92.5t104 276.5v893h192v-873q0 -293 -154 -425t-426 -132q-270 0 -421.5 132.5t-151.5 424.5zM457 1772l2 6h213l178 -271h-166z" />
<glyph unicode="&#xda;" horiz-adv-x="1497" d="M172 532v873h195v-893q0 -184 99 -276.5t279 -92.5t284 92.5t104 276.5v893h192v-873q0 -293 -154 -425t-426 -132q-270 0 -421.5 132.5t-151.5 424.5zM662 1507l178 271h211l2 -6l-226 -265h-165z" />
<glyph unicode="&#xdb;" horiz-adv-x="1497" d="M172 532v873h195v-893q0 -184 99 -276.5t279 -92.5t284 92.5t104 276.5v893h192v-873q0 -293 -154 -425t-426 -132q-270 0 -421.5 132.5t-151.5 424.5zM440 1507l215 271h187l217 -271h-176l-133 168l-136 -168h-174z" />
<glyph unicode="&#xdc;" horiz-adv-x="1497" d="M172 532v873h195v-893q0 -184 99 -276.5t279 -92.5t284 92.5t104 276.5v893h192v-873q0 -293 -154 -425t-426 -132q-270 0 -421.5 132.5t-151.5 424.5zM463 1585v189h182v-189h-182zM852 1585v189h182v-189h-182z" />
<glyph unicode="&#xdd;" horiz-adv-x="1341" d="M20 1405h224l428 -649h10l426 649h213l-551 -821v-584h-197v584zM588 1507l178 271h211l2 -6l-225 -265h-166z" />
<glyph unicode="&#xde;" horiz-adv-x="1390" d="M174 0v1405h195v-244h487q219 0 328.5 -118.5t109.5 -309.5q0 -131 -53 -229t-151.5 -153.5t-231.5 -55.5h-489v-295h-195zM369 463h477q115 0 183.5 71.5t68.5 198.5q0 121 -63.5 190.5t-188.5 69.5h-477v-530z" />
<glyph unicode="&#xdf;" horiz-adv-x="1267" d="M162 0v1057q0 160 67.5 259t180 144t245.5 45q227 0 346 -102.5t119 -259.5q0 -119 -66.5 -207t-176.5 -125v-8q137 -35 217 -134.5t80 -244.5q0 -135 -57.5 -229.5t-157 -144.5t-228.5 -50h-209v152h189q125 0 201.5 71.5t76.5 212.5q0 129 -80 202t-198 73h-189v155 h168q68 0 123 35t88 92.5t33 128.5q0 102 -71.5 168t-209.5 66q-143 0 -226 -74t-83 -219v-1063h-182z" />
<glyph unicode="&#xe0;" horiz-adv-x="1116" d="M70 274q0 147 92 226.5t252.5 109t367.5 29.5v123q0 88 -48 140t-193 52q-141 0 -192.5 -50t-51.5 -116v-30h-174q-2 10 -2 20v25q0 147 119.5 223t312.5 76q203 0 306.5 -85t103.5 -237v-583q0 -39 17 -54.5t46 -15.5h80v-119q-29 -14 -64.5 -22.5t-78.5 -8.5 q-80 0 -118 47.5t-48 118.5h-15q-57 -78 -152 -123t-218 -45q-78 0 -157 26t-132 91.5t-53 181.5zM258 287q0 -82 55.5 -121t143.5 -39q86 0 160.5 36t119.5 100.5t45 150.5v90q-248 0 -386 -44t-138 -173zM274 1475l2 6h203l178 -271h-157z" />
<glyph unicode="&#xe1;" horiz-adv-x="1116" d="M70 274q0 147 92 226.5t252.5 109t367.5 29.5v123q0 88 -48 140t-193 52q-141 0 -192.5 -50t-51.5 -116v-30h-174q-2 10 -2 20v25q0 147 119.5 223t312.5 76q203 0 306.5 -85t103.5 -237v-583q0 -39 17 -54.5t46 -15.5h80v-119q-29 -14 -64.5 -22.5t-78.5 -8.5 q-80 0 -118 47.5t-48 118.5h-15q-57 -78 -152 -123t-218 -45q-78 0 -157 26t-132 91.5t-53 181.5zM258 287q0 -82 55.5 -121t143.5 -39q86 0 160.5 36t119.5 100.5t45 150.5v90q-248 0 -386 -44t-138 -173zM438 1210l178 271h203l2 -6l-225 -265h-158z" />
<glyph unicode="&#xe2;" horiz-adv-x="1116" d="M70 274q0 147 92 226.5t252.5 109t367.5 29.5v123q0 88 -48 140t-193 52q-141 0 -192.5 -50t-51.5 -116v-30h-174q-2 10 -2 20v25q0 147 119.5 223t312.5 76q203 0 306.5 -85t103.5 -237v-583q0 -39 17 -54.5t46 -15.5h80v-119q-29 -14 -64.5 -22.5t-78.5 -8.5 q-80 0 -118 47.5t-48 118.5h-15q-57 -78 -152 -123t-218 -45q-78 0 -157 26t-132 91.5t-53 181.5zM244 1210l217 271h170l217 -271h-168l-133 168l-135 -168h-168zM258 287q0 -82 55.5 -121t143.5 -39q86 0 160.5 36t119.5 100.5t45 150.5v90q-248 0 -386 -44t-138 -173z " />
<glyph unicode="&#xe3;" horiz-adv-x="1116" d="M70 274q0 147 92 226.5t252.5 109t367.5 29.5v123q0 88 -48 140t-193 52q-141 0 -192.5 -50t-51.5 -116v-30h-174q-2 10 -2 20v25q0 147 119.5 223t312.5 76q203 0 306.5 -85t103.5 -237v-583q0 -39 17 -54.5t46 -15.5h80v-119q-29 -14 -64.5 -22.5t-78.5 -8.5 q-80 0 -118 47.5t-48 118.5h-15q-57 -78 -152 -123t-218 -45q-78 0 -157 26t-132 91.5t-53 181.5zM219 1274q2 82 44 141.5t134 59.5q51 0 100.5 -17.5t96.5 -35t92 -17.5q57 0 68 70h116q-2 -82 -45 -141.5t-133 -59.5q-51 0 -100 17.5t-96 34.5t-93 17q-59 0 -67 -69h-117 zM258 287q0 -82 55.5 -121t143.5 -39q86 0 160.5 36t119.5 100.5t45 150.5v90q-248 0 -386 -44t-138 -173z" />
<glyph unicode="&#xe4;" horiz-adv-x="1116" d="M70 274q0 147 92 226.5t252.5 109t367.5 29.5v123q0 88 -48 140t-193 52q-141 0 -192.5 -50t-51.5 -116v-30h-174q-2 10 -2 20v25q0 147 119.5 223t312.5 76q203 0 306.5 -85t103.5 -237v-583q0 -39 17 -54.5t46 -15.5h80v-119q-29 -14 -64.5 -22.5t-78.5 -8.5 q-80 0 -118 47.5t-48 118.5h-15q-57 -78 -152 -123t-218 -45q-78 0 -157 26t-132 91.5t-53 181.5zM258 287q0 -82 55.5 -121t143.5 -39q86 0 160.5 36t119.5 100.5t45 150.5v90q-248 0 -386 -44t-138 -173zM258 1288v189h182v-189h-182zM649 1288v189h182v-189h-182z" />
<glyph unicode="&#xe5;" horiz-adv-x="1116" d="M70 274q0 147 92 226.5t252.5 109t367.5 29.5v123q0 88 -48 140t-193 52q-141 0 -192.5 -50t-51.5 -116v-30h-174q-2 10 -2 20v25q0 147 119.5 223t312.5 76q203 0 306.5 -85t103.5 -237v-583q0 -39 17 -54.5t46 -15.5h80v-119q-29 -14 -64.5 -22.5t-78.5 -8.5 q-80 0 -118 47.5t-48 118.5h-15q-57 -78 -152 -123t-218 -45q-78 0 -157 26t-132 91.5t-53 181.5zM258 287q0 -82 55.5 -121t143.5 -39q86 0 160.5 36t119.5 100.5t45 150.5v90q-248 0 -386 -44t-138 -173zM352 1378q0 84 54.5 138.5t140.5 54.5q84 0 138 -54.5t54 -138.5 q0 -82 -54 -136t-138 -54q-86 0 -140.5 54t-54.5 136zM446 1378q0 -45 28 -72.5t73 -27.5q43 0 70.5 27.5t27.5 72.5t-27.5 74t-70.5 29q-45 0 -73 -29t-28 -74z" />
<glyph unicode="&#xe6;" horiz-adv-x="1830" d="M70 274q0 145 95 224.5t261 108t379 28.5v127q0 86 -51.5 139t-204.5 53q-147 0 -199.5 -50t-52.5 -116v-30h-174q-2 10 -2 20v25q0 147 120.5 223t319.5 76q135 0 227.5 -40t137.5 -114q121 154 368 154q221 0 338 -129t117 -387v-88h-760q2 -199 77 -287t224 -88 q135 0 205 68.5t74 175.5h176q-2 -174 -121 -283t-338 -109q-287 0 -397 201q-84 -115 -202 -158t-241 -43q-63 0 -128.5 14.5t-122 47.5t-91 91t-34.5 146zM258 287q0 -84 56.5 -124t150.5 -40q90 0 168 36t125 101.5t47 153.5v84q-258 0 -402.5 -42t-144.5 -169zM991 633 h572q0 180 -78 250.5t-197 70.5q-141 0 -213 -75.5t-84 -245.5z" />
<glyph unicode="&#xe7;" horiz-adv-x="1062" d="M76 539q0 563 481 563q221 0 325.5 -112.5t104.5 -311.5h-182q0 141 -58.5 207.5t-193.5 66.5t-213 -91t-78 -302v-43q0 -203 75 -297t218 -94q137 0 196.5 72.5t59.5 201.5h176q0 -174 -96 -293.5t-303 -130.5l-8 -55q78 0 135 -27.5t57 -99.5q0 -61 -37 -94t-92.5 -46 t-110.5 -13q-47 0 -96 5t-92 11v80h199q80 0 80 57q0 25 -16.5 37t-63.5 12h-105l27 140q-193 23 -291 160t-98 397z" />
<glyph unicode="&#xe8;" horiz-adv-x="1122" d="M80 539q0 291 126 427t374 136q227 0 343.5 -132t116.5 -390v-86h-774q4 -197 81 -284t228 -87q137 0 210 68.5t75 175.5h176q-2 -174 -122 -283t-343 -109q-242 0 -366.5 136.5t-124.5 427.5zM270 629h584q0 180 -78 252.5t-203 72.5q-141 0 -217 -78.5t-86 -246.5z M301 1475l2 6h205l176 -271h-158z" />
<glyph unicode="&#xe9;" horiz-adv-x="1122" d="M80 539q0 291 126 427t374 136q227 0 343.5 -132t116.5 -390v-86h-774q4 -197 81 -284t228 -87q137 0 210 68.5t75 175.5h176q-2 -174 -122 -283t-343 -109q-242 0 -366.5 136.5t-124.5 427.5zM270 629h584q0 180 -78 252.5t-203 72.5q-141 0 -217 -78.5t-86 -246.5z M467 1210l176 271h205l2 -6l-227 -265h-156z" />
<glyph unicode="&#xea;" horiz-adv-x="1122" d="M80 539q0 291 126 427t374 136q227 0 343.5 -132t116.5 -390v-86h-774q4 -197 81 -284t228 -87q137 0 210 68.5t75 175.5h176q-2 -174 -122 -283t-343 -109q-242 0 -366.5 136.5t-124.5 427.5zM270 629h584q0 180 -78 252.5t-203 72.5q-141 0 -217 -78.5t-86 -246.5z M272 1210l215 271h172l215 -271h-165l-136 168l-135 -168h-166z" />
<glyph unicode="&#xeb;" horiz-adv-x="1122" d="M80 539q0 291 126 427t374 136q227 0 343.5 -132t116.5 -390v-86h-774q4 -197 81 -284t228 -87q137 0 210 68.5t75 175.5h176q-2 -174 -122 -283t-343 -109q-242 0 -366.5 136.5t-124.5 427.5zM270 629h584q0 180 -78 252.5t-203 72.5q-141 0 -217 -78.5t-86 -246.5z M285 1288v189h182v-189h-182zM676 1288v189h182v-189h-182z" />
<glyph unicode="&#xec;" horiz-adv-x="460" d="M-41 1475l2 6h203l178 -271h-158zM141 0v1077h181v-1077h-181z" />
<glyph unicode="&#xed;" horiz-adv-x="460" d="M123 1210l178 271h203l2 -6l-225 -265h-158zM141 0v1077h181v-1077h-181z" />
<glyph unicode="&#xee;" horiz-adv-x="460" d="M-72 1210l217 271h170l217 -271h-167l-134 168l-135 -168h-168zM141 0v1077h181v-1077h-181z" />
<glyph unicode="&#xef;" horiz-adv-x="460" d="M-57 1288v189h182v-189h-182zM141 0v1077h181v-1077h-181zM334 1288v189h182v-189h-182z" />
<glyph unicode="&#xf0;" horiz-adv-x="1161" d="M84 535q0 279 120 419t337 140q92 0 172 -31l4 4q-35 51 -75 98t-85 95l-301 -23v117l190 12q-66 57 -137 107l6 8h222q33 -25 63.5 -49.5t58.5 -49.5l295 23v-117l-182 -14q145 -154 226 -337t81 -402q0 -293 -128.5 -426.5t-372.5 -133.5q-242 0 -368 135.5t-126 424.5 zM270 516q0 -205 78 -297t234 -92q154 0 231.5 92t77.5 295v43q0 203 -78 294t-231 91q-156 0 -234 -91t-78 -294v-41z" />
<glyph unicode="&#xf1;" horiz-adv-x="1153" d="M141 0v1077h146l16 -162h14q63 98 154.5 142.5t206.5 44.5q154 0 249 -80t95 -279v-743h-180v719q0 135 -64.5 179t-165.5 44q-76 0 -142.5 -37t-107 -106.5t-40.5 -165.5v-633h-181zM254 1274q2 82 43 141.5t133 59.5q51 0 101.5 -17.5t97.5 -35t92 -17.5q57 0 67 70 h115q-2 -82 -45 -141.5t-133 -59.5q-51 0 -100.5 17.5t-95.5 34.5t-91 17q-61 0 -69 -69h-115z" />
<glyph unicode="&#xf2;" horiz-adv-x="1167" d="M80 539q0 291 129 427t375 136t373.5 -136.5t127.5 -426.5q0 -291 -127.5 -427.5t-373.5 -136.5t-375 136.5t-129 427.5zM268 516q0 -203 79 -296t237 -93t236.5 93t78.5 296v45q0 201 -79 295t-236 94q-158 0 -237 -94t-79 -295v-45zM311 1475l2 6h203l178 -271h-157z " />
<glyph unicode="&#xf3;" horiz-adv-x="1167" d="M80 539q0 291 129 427t375 136t373.5 -136.5t127.5 -426.5q0 -291 -127.5 -427.5t-373.5 -136.5t-375 136.5t-129 427.5zM268 516q0 -203 79 -296t237 -93t236.5 93t78.5 296v45q0 201 -79 295t-236 94q-158 0 -237 -94t-79 -295v-45zM477 1210l176 271h205l2 -6 l-227 -265h-156z" />
<glyph unicode="&#xf4;" horiz-adv-x="1167" d="M80 539q0 291 129 427t375 136t373.5 -136.5t127.5 -426.5q0 -291 -127.5 -427.5t-373.5 -136.5t-375 136.5t-129 427.5zM268 516q0 -203 79 -296t237 -93t236.5 93t78.5 296v45q0 201 -79 295t-236 94q-158 0 -237 -94t-79 -295v-45zM281 1210l217 271h172l215 -271 h-168l-133 168l-135 -168h-168z" />
<glyph unicode="&#xf5;" horiz-adv-x="1167" d="M80 539q0 291 129 427t375 136t373.5 -136.5t127.5 -426.5q0 -291 -127.5 -427.5t-373.5 -136.5t-375 136.5t-129 427.5zM258 1274q2 82 43 141.5t133 59.5q51 0 100.5 -17.5t96.5 -35t92 -17.5q59 0 68 70h116q-2 -82 -45 -141.5t-133 -59.5q-51 0 -100 17.5t-96.5 34.5 t-90.5 17q-61 0 -69 -69h-115zM268 516q0 -203 79 -296t237 -93t236.5 93t78.5 296v45q0 201 -79 295t-236 94q-158 0 -237 -94t-79 -295v-45z" />
<glyph unicode="&#xf6;" horiz-adv-x="1167" d="M80 539q0 291 129 427t375 136t373.5 -136.5t127.5 -426.5q0 -291 -127.5 -427.5t-373.5 -136.5t-375 136.5t-129 427.5zM268 516q0 -203 79 -296t237 -93t236.5 93t78.5 296v45q0 201 -79 295t-236 94q-158 0 -237 -94t-79 -295v-45zM295 1288v189h182v-189h-182z M686 1288v189h182v-189h-182z" />
<glyph unicode="&#xf7;" d="M156 444v158h966v-158h-966zM545 49v184h186v-184h-186zM545 815v184h186v-184h-186z" />
<glyph unicode="&#xf8;" horiz-adv-x="1167" d="M55 -98l154 211q-129 141 -129 426q0 291 129 427t375 136q174 0 286 -66l103 144h137l-154 -213q129 -141 129 -428q0 -291 -128 -427.5t-373 -136.5q-174 0 -287 66l-100 -139h-142zM268 516q0 -160 49 -252l455 635q-72 51 -188 51q-158 0 -237 -94t-79 -295v-45z M393 178q72 -51 191 -51q158 0 236.5 93t78.5 296v45q0 160 -51 252z" />
<glyph unicode="&#xf9;" horiz-adv-x="1150" d="M131 334v743h180v-719q0 -135 63.5 -179t164.5 -44q78 0 144.5 37t107 106.5t40.5 165.5v633h181v-1077h-146l-16 162h-14q-63 -98 -154.5 -142.5t-206.5 -44.5q-154 0 -249 80t-95 279zM305 1475l2 6h203l178 -271h-158z" />
<glyph unicode="&#xfa;" horiz-adv-x="1150" d="M131 334v743h180v-719q0 -135 63.5 -179t164.5 -44q78 0 144.5 37t107 106.5t40.5 165.5v633h181v-1077h-146l-16 162h-14q-63 -98 -154.5 -142.5t-206.5 -44.5q-154 0 -249 80t-95 279zM469 1210l178 271h203l2 -6l-225 -265h-158z" />
<glyph unicode="&#xfb;" horiz-adv-x="1150" d="M131 334v743h180v-719q0 -135 63.5 -179t164.5 -44q78 0 144.5 37t107 106.5t40.5 165.5v633h181v-1077h-146l-16 162h-14q-63 -98 -154.5 -142.5t-206.5 -44.5q-154 0 -249 80t-95 279zM274 1210l218 271h170l217 -271h-168l-133 168l-136 -168h-168z" />
<glyph unicode="&#xfc;" horiz-adv-x="1150" d="M131 334v743h180v-719q0 -135 63.5 -179t164.5 -44q78 0 144.5 37t107 106.5t40.5 165.5v633h181v-1077h-146l-16 162h-14q-63 -98 -154.5 -142.5t-206.5 -44.5q-154 0 -249 80t-95 279zM289 1288v189h182v-189h-182zM680 1288v189h182v-189h-182z" />
<glyph unicode="&#xfd;" horiz-adv-x="1032" d="M27 1077h188l215 -555q14 -39 33.5 -95t38 -115.5t33.5 -104.5h12q12 43 28.5 101.5t35 114.5t30.5 97l182 557h183l-365 -1046q-43 -119 -93 -210t-125 -142.5t-190 -51.5q-49 0 -84.5 6.5t-48.5 10.5v131h90q74 0 142.5 47t111.5 178zM430 1210l176 271h203l2 -6 l-225 -265h-156z" />
<glyph unicode="&#xfe;" horiz-adv-x="1150" d="M141 -354v1845h181v-549h12q55 84 141 122t189 38q186 0 296.5 -135.5t110.5 -421.5q0 -299 -113.5 -434.5t-302.5 -135.5q-102 0 -185 39t-136 121h-12v-489h-181zM322 524q0 -190 67 -290.5t217 -100.5q133 0 205 87t72 296v43q0 203 -66.5 294t-210.5 91 q-76 0 -141.5 -33.5t-104 -118.5t-38.5 -233v-35z" />
<glyph unicode="&#xff;" horiz-adv-x="1032" d="M27 1077h188l215 -555q14 -39 33.5 -95t38 -115.5t33.5 -104.5h12q12 43 28.5 101.5t35 114.5t30.5 97l182 557h183l-365 -1046q-43 -119 -93 -210t-125 -142.5t-190 -51.5q-49 0 -84.5 6.5t-48.5 10.5v131h90q74 0 142.5 47t111.5 178zM248 1288v189h182v-189h-182z M639 1288v189h182v-189h-182z" />
<glyph unicode="&#x152;" horiz-adv-x="2516" d="M104 702q0 367 186.5 547.5t514.5 180.5q346 0 502 -211v186h1083v-168h-889v-434h799v-168h-799v-467h901v-168h-1095v188q-158 -213 -502 -213q-328 0 -514.5 181.5t-186.5 545.5zM307 676q0 -276 133.5 -404.5t364.5 -128.5q233 0 367.5 128t134.5 405v45 q0 283 -135.5 412t-366.5 129t-364.5 -129t-133.5 -412v-45z" />
<glyph unicode="&#x153;" horiz-adv-x="1914" d="M80 539q0 291 128 427t370 136q283 0 397 -205q59 104 160.5 154.5t240.5 50.5q223 0 340 -130t117 -392v-86h-764q2 -197 78 -284t225 -87q135 0 206 68.5t75 175.5h176q-2 -174 -121 -283t-340 -109q-137 0 -236.5 50.5t-156.5 152.5q-119 -203 -404 -203 q-240 0 -365.5 136.5t-125.5 427.5zM268 518q0 -205 76.5 -298t230.5 -93t231 92t77 297v43q0 205 -77 298t-231 93t-230.5 -92t-76.5 -297v-43zM1071 629h576q0 180 -78 252.5t-199 72.5q-141 0 -214 -78.5t-85 -246.5z" />
<glyph unicode="&#x178;" horiz-adv-x="1341" d="M20 1405h224l428 -649h10l426 649h213l-551 -821v-584h-197v584zM389 1585v189h182v-189h-182zM778 1585v189h183v-189h-183z" />
<glyph unicode="&#x2c6;" horiz-adv-x="604" d="M0 1210l217 271h170l217 -271h-168l-133 168l-135 -168h-168z" />
<glyph unicode="&#x2dc;" horiz-adv-x="649" d="M0 1274q2 82 43 141.5t133 59.5q53 0 102.5 -17.5t96.5 -35t92 -17.5q57 0 68 70h114q-2 -82 -45 -141.5t-133 -59.5q-51 0 -99 17.5t-95.5 34.5t-92.5 17q-61 0 -69 -69h-115z" />
<glyph unicode="&#x2000;" horiz-adv-x="939" />
<glyph unicode="&#x2001;" horiz-adv-x="1878" />
<glyph unicode="&#x2002;" horiz-adv-x="939" />
<glyph unicode="&#x2003;" horiz-adv-x="1878" />
<glyph unicode="&#x2004;" horiz-adv-x="626" />
<glyph unicode="&#x2005;" horiz-adv-x="469" />
<glyph unicode="&#x2006;" horiz-adv-x="313" />
<glyph unicode="&#x2007;" horiz-adv-x="313" />
<glyph unicode="&#x2008;" horiz-adv-x="234" />
<glyph unicode="&#x2009;" horiz-adv-x="375" />
<glyph unicode="&#x200a;" horiz-adv-x="104" />
<glyph unicode="&#x2010;" horiz-adv-x="681" d="M82 463v182h518v-182h-518z" />
<glyph unicode="&#x2011;" horiz-adv-x="681" d="M82 463v182h518v-182h-518z" />
<glyph unicode="&#x2012;" horiz-adv-x="681" d="M82 463v182h518v-182h-518z" />
<glyph unicode="&#x2013;" horiz-adv-x="1024" d="M0 481v146h1024v-146h-1024z" />
<glyph unicode="&#x2014;" horiz-adv-x="2048" d="M0 481v146h2048v-146h-2048z" />
<glyph unicode="&#x2018;" horiz-adv-x="489" d="M139 891v190q0 119 35 185.5t86 97.5t100 41v-84q-59 -14 -85.5 -73.5t-26.5 -143.5h92v-213h-201z" />
<glyph unicode="&#x2019;" horiz-adv-x="489" d="M127 891v82q61 14 88 74.5t27 142.5h-95v215h201v-193q0 -117 -33.5 -184t-85 -98t-102.5 -39z" />
<glyph unicode="&#x201a;" horiz-adv-x="489" d="M127 -217q61 14 88 73.5t27 143.5h-95v215h201v-192q0 -119 -33.5 -185.5t-85 -97.5t-102.5 -41v84z" />
<glyph unicode="&#x201c;" horiz-adv-x="806" d="M139 891v190q0 119 35 185.5t86 97.5t100 41v-84q-59 -14 -85.5 -73.5t-26.5 -143.5h92v-213h-201zM459 891v190q0 119 33.5 185.5t85 97.5t100.5 41v-84q-59 -14 -86 -73.5t-27 -143.5h94v-213h-200z" />
<glyph unicode="&#x201d;" horiz-adv-x="806" d="M127 891v82q61 14 88 74.5t27 142.5h-95v215h201v-193q0 -117 -33.5 -184t-85 -98t-102.5 -39zM446 891v82q59 14 86 74.5t27 142.5h-94v215h201v-193q0 -117 -34 -184t-85.5 -98t-100.5 -39z" />
<glyph unicode="&#x201e;" horiz-adv-x="806" d="M127 -217q61 14 88 73.5t27 143.5h-95v215h201v-192q0 -119 -33.5 -185.5t-85 -97.5t-102.5 -41v84zM446 -217q59 14 86 73.5t27 143.5h-94v215h201v-192q0 -119 -34 -185.5t-85.5 -97.5t-100.5 -41v84z" />
<glyph unicode="&#x2022;" horiz-adv-x="800" d="M147 702q0 111 71 182.5t181 71.5q111 0 182.5 -71.5t71.5 -182.5t-71.5 -181t-182.5 -70t-181.5 70.5t-70.5 180.5z" />
<glyph unicode="&#x2026;" horiz-adv-x="1728" d="M182 0v215h201v-215h-201zM764 0v215h201v-215h-201zM1343 0v215h201v-215h-201z" />
<glyph unicode="&#x202f;" horiz-adv-x="375" />
<glyph unicode="&#x2039;" horiz-adv-x="727" d="M127 668l322 409h145l-264 -409l264 -410h-145z" />
<glyph unicode="&#x203a;" horiz-adv-x="727" d="M131 258l264 410l-264 409h145l324 -409l-324 -410h-145z" />
<glyph unicode="&#x205f;" horiz-adv-x="469" />
<glyph unicode="&#x20ac;" horiz-adv-x="1189" d="M51 498v129h142q-2 18 -2.5 36.5t-0.5 38.5v37t3 39h-142v129h160q37 166 130 283t228.5 178.5t300.5 61.5q106 0 209 -33v-150q-78 27 -170 27q-182 0 -315 -92t-182 -275h522v-129h-549q-2 -18 -2 -37.5v-38.5v-38.5t2 -36.5h549v-129h-522q49 -182 182 -274.5 t315 -92.5q92 0 170 27v-150q-96 -33 -209 -33q-166 0 -301 61.5t-228 178.5t-130 283h-160z" />
<glyph unicode="&#x2122;" horiz-adv-x="1906" d="M127 1292v113h639v-113h-260v-708h-121v708h-258zM879 582v823h180l231 -657h6l234 657h178v-823h-121v647h-6l-233 -647h-115l-236 651h-6v-651h-112z" />
<glyph unicode="&#x25fc;" horiz-adv-x="1075" d="M0 0v1075h1075v-1075h-1075z" />
<glyph unicode="&#xfb03;" horiz-adv-x="1566" d="M25 926v151h159v172q0 61 19.5 118.5t70 93.5t142.5 36q88 0 155 -22v-129h-108q-98 0 -98 -99v-170h350v172q0 61 19.5 118.5t70.5 93.5t143 36q86 0 154 -22v-129h-107q-100 0 -100 -99v-170h207v-151h-207v-926h-180v926h-350v-926h-181v926h-159zM1247 0v1077h180 v-1077h-180zM1247 1280v201h180v-201h-180z" />
<glyph unicode="&#xfb04;" horiz-adv-x="1566" d="M25 926v151h159v172q0 61 19.5 118.5t70 93.5t142.5 36q88 0 155 -22v-129h-108q-98 0 -98 -99v-170h350v172q0 61 19.5 118.5t70.5 93.5t143 36q86 0 154 -22v-129h-107q-100 0 -100 -99v-170h207v-151h-207v-926h-180v926h-350v-926h-181v926h-159zM1247 0v1481h180 v-1481h-180z" />
</font>
</defs>
</svg>
